<svg width="1552" height="729" viewBox="0 0 1552 729" fill="none" xmlns="http://www.w3.org/2000/svg">
<g opacity="0.5">
<path opacity="0.5" d="M446.65 407.36L413.19 408.05L407.72 415.56V441.51L414.55 446.29H446.65L453.48 438.78V414.19L446.65 407.36Z" fill="#6C63FF"/>
<path opacity="0.2" d="M445.95 411.46C445.95 411.46 415.22 416.24 412.49 411.46L413.18 408.05L445.95 407.33V411.46Z" fill="white"/>
<path opacity="0.5" d="M449.38 482.48L454.84 487.95V513.95L449.38 519.33C449.38 519.33 429.58 526.16 416.6 520.69L410.45 514.55V488.55L415.92 482.4L449.38 482.48Z" fill="#6C63FF"/>
<path opacity="0.2" d="M448.01 488.63C448.01 488.63 424.11 494.09 415.92 488.63V482.48H449.38L448.01 488.63Z" fill="white"/>
<path opacity="0.5" d="M436.4 446.11V483.05C436.322 484.513 435.668 485.885 434.581 486.867C433.494 487.849 432.063 488.361 430.6 488.29V488.29C429.136 488.361 427.705 487.849 426.618 486.867C425.531 485.885 424.877 484.513 424.8 483.05V446.11C424.8 442.97 427.8 440.54 431.28 440.9C432.626 440.983 433.894 441.561 434.839 442.523C435.785 443.485 436.34 444.762 436.4 446.11V446.11Z" fill="#6C63FF"/>
<path opacity="0.5" d="M500.24 408.42L466.78 409.1L461.31 416.61V442.56L468.14 447.34H500.24L507.07 439.83V415.24L500.24 408.42Z" fill="#6C63FF"/>
<path opacity="0.2" d="M499.55 412.51C499.55 412.51 468.82 417.29 466.09 412.51L466.77 409.1L499.55 408.42V412.51Z" fill="white"/>
<path opacity="0.5" d="M502.95 483.53L508.41 489V515L502.95 520.41C502.95 520.41 483.14 527.24 470.17 521.77L464.02 515.63V489.68L469.49 483.53H502.95Z" fill="#6C63FF"/>
<path opacity="0.2" d="M501.6 489.68C501.6 489.68 477.7 495.14 469.51 489.68V483.53H502.95L501.6 489.68Z" fill="white"/>
<path opacity="0.5" d="M489.95 447.16V484.1C489.869 485.562 489.215 486.933 488.129 487.914C487.042 488.896 485.612 489.408 484.15 489.34V489.34C482.685 489.411 481.253 488.9 480.164 487.918C479.076 486.936 478.42 485.564 478.34 484.1V447.16C478.34 444.02 481.34 441.59 484.83 441.95C486.176 442.033 487.444 442.611 488.389 443.573C489.335 444.535 489.89 445.812 489.95 447.16V447.16Z" fill="#6C63FF"/>
<path opacity="0.5" d="M568.46 428.17L540.91 428.74L536.41 434.92V456.28L542.03 460.22H568.46L574.08 454.03V433.79L568.46 428.17Z" fill="#6C63FF"/>
<path opacity="0.2" d="M567.89 431.55C567.89 431.55 542.6 435.48 540.35 431.55L540.91 428.74L567.91 428.17L567.89 431.55Z" fill="white"/>
<path opacity="0.5" d="M570.7 490.01L575.2 494.51V515.87L570.7 520.37C570.7 520.37 554.4 525.99 543.7 521.49L538.64 516.43V495.07L543.14 490.01H570.7Z" fill="#6C63FF"/>
<path opacity="0.2" d="M569.58 495.07C569.58 495.07 549.9 499.57 543.16 495.07V490.01H570.7L569.58 495.07Z" fill="white"/>
<path opacity="0.5" d="M560.02 460.07V490.48C559.955 491.685 559.416 492.814 558.52 493.622C557.624 494.43 556.444 494.85 555.24 494.79V494.79C554.036 494.85 552.857 494.43 551.963 493.622C551.069 492.814 550.532 491.684 550.47 490.48V460.07C550.508 459.427 550.68 458.799 550.975 458.226C551.271 457.653 551.683 457.149 552.185 456.745C552.687 456.341 553.268 456.046 553.89 455.88C554.513 455.714 555.163 455.68 555.8 455.78C556.908 455.848 557.953 456.324 558.732 457.116C559.511 457.908 559.97 458.96 560.02 460.07Z" fill="#6C63FF"/>
<path opacity="0.5" d="M612.57 429.04L585.02 429.6L580.53 435.78V457.15L586.15 461.08H612.57L618.19 454.9V434.66L612.57 429.04Z" fill="#6C63FF"/>
<path opacity="0.2" d="M612.01 432.41C612.01 432.41 586.71 436.35 584.46 432.41L585.02 429.6L612.02 429.04L612.01 432.41Z" fill="white"/>
<path opacity="0.5" d="M614.82 490.88L619.31 495.37V516.73L614.82 521.23C614.82 521.23 598.51 526.85 587.82 522.36L582.77 517.33V495.94L587.27 490.88H614.82Z" fill="#6C63FF"/>
<path opacity="0.2" d="M613.69 495.94C613.69 495.94 594.02 500.43 587.27 495.94V490.88H614.82L613.69 495.94Z" fill="white"/>
<path opacity="0.5" d="M604.14 460.93V491.33C604.075 492.535 603.536 493.664 602.64 494.472C601.744 495.28 600.564 495.7 599.36 495.64C598.155 495.7 596.975 495.28 596.079 494.472C595.184 493.664 594.644 492.535 594.58 491.33V460.93C594.58 458.35 597.08 456.35 599.92 456.65C601.028 456.716 602.072 457.189 602.851 457.98C603.631 458.77 604.09 459.821 604.14 460.93V460.93Z" fill="#6C63FF"/>
</g>
<path d="M631.89 625.75C633.008 627.325 633.766 629.127 634.112 631.028C634.457 632.928 634.382 634.882 633.89 636.75C637.457 639.312 641.794 640.575 646.18 640.33C650.532 640.093 654.811 639.108 658.83 637.42C662.325 636.146 665.634 634.41 668.67 632.26C673.89 628.4 677.67 622.88 680.67 617.16C682.36 614 683.8 609.91 681.67 607.07C680.832 606.106 679.813 605.318 678.67 604.75C670.965 600.354 662.942 596.541 654.67 593.34C652.398 592.293 649.931 591.741 647.43 591.72C644.36 591.89 641.57 593.57 639.13 595.45C633.646 599.715 629.224 605.191 626.21 611.45C625.27 613.45 622.43 618.2 623.84 620.26C624.48 621.21 626.84 621.54 627.84 622.14C629.43 623.043 630.81 624.274 631.89 625.75V625.75Z" fill="#FBBEBE"/>
<path opacity="0.03" d="M631.89 625.75C633.008 627.325 633.766 629.127 634.112 631.028C634.457 632.928 634.382 634.882 633.89 636.75C637.457 639.312 641.794 640.575 646.18 640.33C650.532 640.093 654.811 639.108 658.83 637.42C662.325 636.146 665.634 634.41 668.67 632.26C673.89 628.4 677.67 622.88 680.67 617.16C682.36 614 683.8 609.91 681.67 607.07C680.832 606.106 679.813 605.318 678.67 604.75C670.965 600.354 662.942 596.541 654.67 593.34C652.398 592.293 649.931 591.741 647.43 591.72C644.36 591.89 641.57 593.57 639.13 595.45C633.646 599.715 629.224 605.191 626.21 611.45C625.27 613.45 622.43 618.2 623.84 620.26C624.48 621.21 626.84 621.54 627.84 622.14C629.43 623.043 630.81 624.274 631.89 625.75V625.75Z" fill="black"/>
<path d="M673.3 602.58C690.22 605.72 705.78 613.9 722.41 618.31C729.14 620.09 736.07 621.31 742.5 623.93C748.93 626.55 754.99 631.03 757.76 637.41C758.931 640.472 759.707 643.671 760.07 646.93C760.79 651.54 761.38 656.69 758.64 660.47C755.75 664.47 750.29 665.35 745.4 665.94C727.82 668.03 710.24 670.13 692.6 671.61C689.028 671.827 685.472 672.251 681.95 672.88C679.05 673.46 676.22 674.34 673.34 675.02C669.61 675.89 665.82 676.44 662.04 677.02C652.37 678.41 642.59 679.8 632.88 678.74C628.45 678.25 623.49 676.82 621.54 672.82C620.73 670.747 620.389 668.52 620.54 666.3C620.49 660.36 620.44 654.43 620.54 648.5C620.63 642.41 620.93 636.09 623.69 630.66C624.374 628.997 625.664 627.657 627.3 626.91C628.306 626.622 629.358 626.527 630.4 626.63C635.6 626.81 640.98 627.03 645.63 629.35C649.32 631.18 652.32 634.23 656.08 635.89C663.2 639.05 671.79 636.78 679 639.75C680.68 634.57 680.3 629.33 679.05 624.02C677.8 618.71 676.05 613.5 675.52 608.08C675.499 606.889 675.269 605.711 674.84 604.6C674.3 603.49 674.48 602.41 673.3 602.58Z" fill="#464353"/>
<path opacity="0.06" d="M673.3 602.58C690.22 605.72 705.78 613.9 722.41 618.31C729.14 620.09 736.07 621.31 742.5 623.93C748.93 626.55 754.99 631.03 757.76 637.41C758.931 640.472 759.707 643.671 760.07 646.93C760.79 651.54 761.38 656.69 758.64 660.47C755.75 664.47 750.29 665.35 745.4 665.94C727.82 668.03 710.24 670.13 692.6 671.61C689.028 671.827 685.472 672.251 681.95 672.88C679.05 673.46 676.22 674.34 673.34 675.02C669.61 675.89 665.82 676.44 662.04 677.02C652.37 678.41 642.59 679.8 632.88 678.74C628.45 678.25 623.49 676.82 621.54 672.82C620.73 670.747 620.389 668.52 620.54 666.3C620.49 660.36 620.44 654.43 620.54 648.5C620.63 642.41 620.93 636.09 623.69 630.66C624.374 628.997 625.664 627.657 627.3 626.91C628.306 626.622 629.358 626.527 630.4 626.63C635.6 626.81 640.98 627.03 645.63 629.35C649.32 631.18 652.32 634.23 656.08 635.89C663.2 639.05 671.79 636.78 679 639.75C680.68 634.57 680.3 629.33 679.05 624.02C677.8 618.71 676.05 613.5 675.52 608.08C675.499 606.889 675.269 605.711 674.84 604.6C674.3 603.49 674.48 602.41 673.3 602.58Z" fill="black"/>
<path d="M108.09 432.07C104.68 430.99 101.39 434.01 99.4796 437.07C91.5396 449.55 92.1896 466.21 98.5396 479.57C100.05 482.958 102.134 486.06 104.7 488.74C108.14 492.13 112.57 494.3 116.7 496.74C128.159 503.51 137.98 512.73 145.46 523.74C150.35 530.95 154.2 538.88 159.75 545.59C173.41 562.11 195.86 569.59 209.11 586.39C212.28 590.39 214.96 595.03 219.19 597.94C221.704 599.669 224.635 600.695 227.678 600.913C230.722 601.13 233.769 600.531 236.504 599.178C239.239 597.824 241.563 595.765 243.235 593.212C244.908 590.66 245.869 587.708 246.02 584.66C251.17 577.09 255.38 568.73 259.39 560.49C265.323 547.913 270.336 534.922 274.39 521.62C275.88 516.92 277.32 512.19 279.22 507.62C283.91 496.34 291.38 486.13 294.02 474.21C295.08 469.43 295.34 464.46 296.88 459.82C298.259 455.655 300.618 451.883 303.76 448.82C314.16 438.71 319.76 423.98 328.03 412.08C331.39 407.27 334.88 402.47 337.1 397.03C339.32 391.59 340.17 385.36 338.1 379.86C336.03 374.36 330.62 369.92 324.76 370.23C322.137 370.502 319.593 371.283 317.27 372.53C309.194 376.362 301.786 381.467 295.33 387.65C292.506 390.367 289.836 393.238 287.33 396.25C275.11 410.85 265.55 428.57 264.71 447.59C264.43 454.11 264.95 461.34 260.81 466.39C249.39 480.34 245.72 499.52 235.98 514.7C231.47 521.7 226.3 528.95 218.59 532.14C217.451 532.688 216.191 532.936 214.93 532.86C211.85 532.51 210.08 529.27 208.78 526.45C203.699 515.451 197.82 504.84 191.19 494.7C188.57 490.7 185.68 486.6 181.49 484.25C178.63 482.66 175.31 481.95 172.62 480.09C168.87 477.5 166.91 473.09 164.96 468.96C158.64 455.621 150.638 443.146 141.15 431.84C136.81 426.67 131.09 421.33 124.39 422.1C118.01 422.85 114.11 429.56 108.09 432.07Z" fill="#FBBEBE"/>
<path opacity="0.03" d="M108.09 432.07C104.68 430.99 101.39 434.01 99.4796 437.07C91.5396 449.55 92.1896 466.21 98.5396 479.57C100.05 482.958 102.134 486.06 104.7 488.74C108.14 492.13 112.57 494.3 116.7 496.74C128.159 503.51 137.98 512.73 145.46 523.74C150.35 530.95 154.2 538.88 159.75 545.59C173.41 562.11 195.86 569.59 209.11 586.39C212.28 590.39 214.96 595.03 219.19 597.94C221.704 599.669 224.635 600.695 227.678 600.913C230.722 601.13 233.769 600.531 236.504 599.178C239.239 597.824 241.563 595.765 243.235 593.212C244.908 590.66 245.869 587.708 246.02 584.66C251.17 577.09 255.38 568.73 259.39 560.49C265.323 547.913 270.336 534.922 274.39 521.62C275.88 516.92 277.32 512.19 279.22 507.62C283.91 496.34 291.38 486.13 294.02 474.21C295.08 469.43 295.34 464.46 296.88 459.82C298.259 455.655 300.618 451.883 303.76 448.82C314.16 438.71 319.76 423.98 328.03 412.08C331.39 407.27 334.88 402.47 337.1 397.03C339.32 391.59 340.17 385.36 338.1 379.86C336.03 374.36 330.62 369.92 324.76 370.23C322.137 370.502 319.593 371.283 317.27 372.53C309.194 376.362 301.786 381.467 295.33 387.65C292.506 390.367 289.836 393.238 287.33 396.25C275.11 410.85 265.55 428.57 264.71 447.59C264.43 454.11 264.95 461.34 260.81 466.39C249.39 480.34 245.72 499.52 235.98 514.7C231.47 521.7 226.3 528.95 218.59 532.14C217.451 532.688 216.191 532.936 214.93 532.86C211.85 532.51 210.08 529.27 208.78 526.45C203.699 515.451 197.82 504.84 191.19 494.7C188.57 490.7 185.68 486.6 181.49 484.25C178.63 482.66 175.31 481.95 172.62 480.09C168.87 477.5 166.91 473.09 164.96 468.96C158.64 455.621 150.638 443.146 141.15 431.84C136.81 426.67 131.09 421.33 124.39 422.1C118.01 422.85 114.11 429.56 108.09 432.07Z" fill="black"/>
<path d="M107.39 384.29C121.948 384.29 133.75 373.639 133.75 360.5C133.75 347.361 121.948 336.71 107.39 336.71C92.8314 336.71 81.0297 347.361 81.0297 360.5C81.0297 373.639 92.8314 384.29 107.39 384.29Z" fill="#FBBEBE"/>
<path d="M132.11 365.1C137.351 365.1 141.6 360.851 141.6 355.61C141.6 350.369 137.351 346.12 132.11 346.12C126.868 346.12 122.62 350.369 122.62 355.61C122.62 360.851 126.868 365.1 132.11 365.1Z" fill="#FBBEBE"/>
<path d="M110.85 360.5C130.903 360.5 147.16 356.153 147.16 350.79C147.16 345.427 130.903 341.08 110.85 341.08C90.7962 341.08 74.5397 345.427 74.5397 350.79C74.5397 356.153 90.7962 360.5 110.85 360.5Z" fill="#FBBEBE"/>
<path d="M78.4696 348.72C79.353 351.52 80.0479 354.377 80.5496 357.27C77.5009 354.175 74.8596 350.704 72.6896 346.94C72.1047 346.291 71.6346 345.547 71.2996 344.74C68.0596 337.2 65.8496 329.57 65.8496 321.31C65.8489 311.733 68.526 302.346 73.5786 294.21C78.6312 286.074 85.858 279.513 94.4429 275.268C103.028 271.022 112.629 269.262 122.161 270.185C131.694 271.109 140.778 274.679 148.389 280.493C155.999 286.307 161.833 294.133 165.23 303.088C168.627 312.042 169.453 321.768 167.614 331.167C165.775 340.566 161.345 349.264 154.824 356.278C148.303 363.292 139.95 368.343 130.71 370.86C132.28 365.8 134.43 360.86 134.71 355.61C134.878 353.859 134.625 352.093 133.97 350.46C133.092 348.723 131.797 347.232 130.2 346.12C124.48 341.75 117.12 339.84 109.92 339.96C102.711 340.259 95.6298 341.958 89.0696 344.96C86.9996 345.85 84.5196 347.05 82.0696 347.87C80.9016 348.275 79.6953 348.559 78.4696 348.72V348.72Z" fill="#FBBEBE"/>
<path d="M208.72 461.1C205.43 466.37 198.4 467.98 192.22 467.51C180.7 466.66 170.22 460.51 161.32 453.11C152.42 445.71 144.64 437.11 135.54 429.99C118.61 416.72 99.5396 411.39 77.9996 411.08C82.2096 407.59 80.6596 399.31 80.9996 393.87C81.7396 382.87 82.4396 371.58 80.9996 360.74C80.8496 359.57 80.6796 358.42 80.4796 357.27C80.8196 357.63 81.1796 357.98 81.5496 358.34C87.9552 364.487 95.8431 368.871 104.446 371.065C113.048 373.259 122.072 373.188 130.64 370.86C130.089 372.602 129.658 374.379 129.35 376.18C128.11 383.91 130.19 391.75 132.24 399.32C133.46 403.85 134.91 408.71 138.64 411.54C141.06 413.38 144.11 414.1 146.98 415.07C152.701 417.02 157.981 420.078 162.52 424.07C165.68 426.84 168.52 430.07 171.91 432.48C175.134 434.519 178.53 436.273 182.06 437.72C190.723 441.718 198.908 446.679 206.46 452.51C207.885 453.399 208.994 454.715 209.63 456.27C209.816 457.094 209.832 457.949 209.675 458.779C209.519 459.61 209.194 460.4 208.72 461.1V461.1Z" fill="#FBBEBE"/>
<path d="M267.79 557.99C267.1 562.55 262.92 566.11 259.97 569.65C251.95 579.33 243.82 589.04 234.85 597.9C225.25 607.37 214.71 615.81 204.18 624.25L190.52 635.18C188.834 636.721 186.859 637.91 184.71 638.68C182.191 639.308 179.53 638.992 177.23 637.79C176.313 637.351 175.445 636.818 174.64 636.2C171.81 634 169.73 631 167.7 628.05C158.46 614.563 149.21 601.073 139.95 587.58C136.65 582.76 133.41 577.81 130.19 572.86C129.76 572.22 129.35 571.57 128.92 570.93C125.98 566.43 123.05 561.93 120.04 557.58L103.58 549.87L101.42 548.87L98.8696 547.68C95.4796 546.09 92.0396 544.47 89.2196 542.01C86.5193 539.472 84.2706 536.493 82.5696 533.2C79.2759 527.111 76.3961 520.806 73.9496 514.33C66.9496 496.66 60.7896 478.24 60.5296 459.22C60.2996 442.49 65.2396 425.09 76.3596 412.81C77.8796 411.12 79.5134 409.537 81.2496 408.07C83.3896 406.28 85.5996 405.23 88.3496 405.62C91.0996 406.01 93.7096 406.41 96.3496 406.86C103.63 408.113 110.853 409.647 118.02 411.46C124.48 413.11 131.17 414.99 137.7 413.68C138.75 413.47 139.79 413.17 140.83 412.9C141.68 412.68 142.52 412.47 143.39 412.33C143.873 412.246 144.36 412.193 144.85 412.17C148.32 411.99 151.65 413.38 154.85 414.75C160.96 417.37 167.25 420.13 171.85 424.95C174.59 427.85 176.6 431.41 179.52 434.14C183.42 437.79 188.62 439.66 193.3 442.27C194.204 442.771 195.075 443.329 195.91 443.94C197.755 445.323 199.433 446.918 200.91 448.69V448.69C206.97 455.84 210.57 465.49 217.26 472.6C222.614 478.28 227.267 484.582 231.12 491.37C231.75 492.5 232.36 493.64 232.96 494.8C233.96 496.73 234.89 498.69 235.75 500.67C235.97 501.18 236.19 501.67 236.39 502.2C237.648 505.196 238.746 508.257 239.68 511.37C241.95 518.92 243.46 527.07 248.5 533.13C252.02 537.34 256.9 540.13 261.01 543.76C263.656 546.002 265.739 548.835 267.09 552.03C267.832 553.923 268.073 555.976 267.79 557.99Z" fill="#FBBEBE"/>
<path opacity="0.06" d="M239.95 497.93C238.803 499.377 237.626 500.803 236.42 502.21C236.22 502.47 236 502.72 235.78 502.97C225.253 515.284 213.203 526.208 199.92 535.48C191.7 541.22 183.03 546.31 174.38 551.39L158.38 560.76C151.69 564.69 144.91 568.65 137.49 570.91C135.11 571.62 132.62 572.19 130.19 572.86C129.76 572.22 129.35 571.57 128.92 570.93C125.98 566.43 123.05 561.93 120.04 557.58L103.58 549.87C112.67 544.124 120.735 536.898 127.44 528.49C137.44 516.16 145.13 502.1 152.71 488.13C154.053 485.875 155.099 483.454 155.82 480.93C156.82 476.74 155.98 472.34 154.75 468.22C150.247 453.448 140.78 440.685 127.95 432.09C118.95 426.09 108.71 422.44 98.5297 418.92C91.4197 416.46 83.6297 414.08 76.3997 415.09C77.9172 413.401 79.5512 411.82 81.2897 410.36C83.4297 408.56 85.6397 407.51 88.3897 407.9C91.1397 408.29 93.7497 408.69 96.3897 409.15C101.74 410.79 107 412.75 112.23 414.77C115.67 416.031 119.013 417.545 122.23 419.3C125.432 421.255 128.508 423.409 131.44 425.75C140.111 432.36 149.24 438.345 158.76 443.66C169.76 449.73 181.31 454.66 192.85 459.66C194.073 460.289 195.424 460.631 196.8 460.66C197.489 460.659 198.158 460.428 198.701 460.004C199.244 459.581 199.631 458.988 199.8 458.32C199.845 457.591 199.679 456.865 199.32 456.23C197.32 452.14 192.78 450.08 188.67 448.09C171.61 439.83 156.61 427.94 141.77 416.14C141.409 415.854 141.092 415.517 140.83 415.14L143.39 414.57C159.997 426.498 177.537 437.073 195.84 446.19C196.806 446.683 197.776 447.163 198.75 447.63C199.45 447.98 200.14 448.32 200.85 448.63C205.78 451.05 210.71 453.63 214.42 457.63C216.812 460.389 218.83 463.452 220.42 466.74C224.507 474.462 227.997 482.485 230.86 490.74C230.914 490.916 230.978 491.09 231.05 491.26C231.412 492.521 232.04 493.69 232.89 494.69C233.189 495.025 233.544 495.306 233.94 495.52C235.82 496.63 238.4 496.51 239.95 497.93Z" fill="black"/>
<path d="M143.43 412.33C160.035 424.259 177.575 434.83 195.88 443.94L198.79 445.39C204.39 448.13 210.22 450.85 214.47 455.39C216.86 458.154 218.878 461.22 220.47 464.51C224.56 472.229 228.047 480.253 230.9 488.51C231.54 490.34 232.29 492.35 233.99 493.29C235.69 494.23 238.39 494.16 239.9 495.58C238.54 497.28 237.16 498.96 235.73 500.58C225.206 512.899 213.156 523.827 199.87 533.1C191.65 538.84 182.98 543.93 174.33 549.01L158.33 558.38C151.64 562.3 144.86 566.26 137.44 568.52C134.65 569.37 131.7 570.01 128.87 570.83C125.93 566.33 123 561.83 119.99 557.48L101.37 548.76C111.37 543.1 120.09 535.05 127.37 526.1C137.37 513.78 145.06 499.72 152.64 485.75C153.982 483.494 155.027 481.074 155.75 478.55C156.75 474.36 155.91 469.95 154.68 465.83C150.175 451.105 140.735 438.381 127.95 429.8C118.95 423.8 108.71 420.16 98.5297 416.63C91.4197 414.18 83.6297 411.79 76.3997 412.81C77.9196 411.12 79.5534 409.537 81.2897 408.07C83.4297 406.28 85.6397 405.23 88.3897 405.62C91.1397 406.01 93.7497 406.41 96.3897 406.86C101.74 408.51 107 410.47 112.23 412.49C115.672 413.747 119.015 415.261 122.23 417.02C125.432 418.975 128.508 421.129 131.44 423.47C140.125 430.064 149.268 436.033 158.8 441.33C169.8 447.41 181.35 452.38 192.89 457.33C194.113 457.959 195.464 458.301 196.84 458.33C197.53 458.332 198.2 458.103 198.744 457.679C199.288 457.254 199.674 456.66 199.84 455.99C199.885 455.265 199.718 454.542 199.36 453.91C197.36 449.82 192.82 447.75 188.71 445.77C171.65 437.51 156.65 425.61 141.81 413.77C141.446 413.487 141.129 413.15 140.87 412.77L143.43 412.33Z" fill="#6C63FF"/>
<path d="M283.54 466.62C318.207 466.62 346.31 438.517 346.31 403.85C346.31 369.183 318.207 341.08 283.54 341.08C248.873 341.08 220.77 369.183 220.77 403.85C220.77 438.517 248.873 466.62 283.54 466.62Z" fill="#6C63FF"/>
<path d="M345.95 653.67C357.7 649.98 369.63 646.22 379.95 639.47C387.2 634.73 393.45 628.63 400.03 622.99C404.98 618.75 410.14 614.75 414.68 610.07C418.747 605.69 422.554 601.076 426.08 596.25C434.106 585.743 442.396 575.437 450.95 565.33C455.54 559.94 460.39 554.45 466.8 551.45C478.19 546.1 491.56 549.71 503.58 553.38C521.58 558.88 539.49 564.71 556.33 573.08C565.91 577.85 575.19 583.17 584.86 587.74C602.54 596.09 621.31 601.82 640.01 607.52C641.399 608.111 642.943 608.238 644.41 607.88C645.458 607.399 646.36 606.646 647.02 605.7C649.458 602.688 651.412 599.314 652.81 595.7C653.076 595.29 653.176 594.793 653.088 594.312C653.001 593.83 652.733 593.401 652.34 593.11C644.34 585.32 633.96 580.53 624.26 574.98C616.54 570.57 609.15 565.62 601.77 560.67C594.68 555.92 587.53 551.12 581.58 545.01C578.58 541.92 575.88 538.51 572.63 535.69C569.758 533.341 566.717 531.209 563.53 529.31C549.275 520.207 535.669 510.126 522.81 499.14C513.03 490.78 505.02 480.01 494.57 472.51C488.16 467.91 480.7 463.72 472.86 464.56C463.32 465.56 456.28 473.56 449.63 480.46C427.28 503.67 399.08 520.28 374.14 540.69C353.78 557.33 334.75 577.1 309.95 585.88C311.06 589.56 311.45 593.24 312.57 596.88C313.965 601.94 315.706 606.898 317.78 611.72C319.836 615.99 322.15 620.131 324.71 624.12L334.65 640.35C336.65 643.65 338.74 647 341.6 649.62C343.1 651.06 345.95 651.58 345.95 653.67Z" fill="#464353"/>
<path opacity="0.06" d="M345.95 653.67C357.7 649.98 369.63 646.22 379.95 639.47C387.2 634.73 393.45 628.63 400.03 622.99C404.98 618.75 410.14 614.75 414.68 610.07C418.747 605.69 422.554 601.076 426.08 596.25C434.106 585.743 442.396 575.437 450.95 565.33C455.54 559.94 460.39 554.45 466.8 551.45C478.19 546.1 491.56 549.71 503.58 553.38C521.58 558.88 539.49 564.71 556.33 573.08C565.91 577.85 575.19 583.17 584.86 587.74C602.54 596.09 621.31 601.82 640.01 607.52C641.399 608.111 642.943 608.238 644.41 607.88C645.458 607.399 646.36 606.646 647.02 605.7C649.458 602.688 651.412 599.314 652.81 595.7C653.076 595.29 653.176 594.793 653.088 594.312C653.001 593.83 652.733 593.401 652.34 593.11C644.34 585.32 633.96 580.53 624.26 574.98C616.54 570.57 609.15 565.62 601.77 560.67C594.68 555.92 587.53 551.12 581.58 545.01C578.58 541.92 575.88 538.51 572.63 535.69C569.758 533.341 566.717 531.209 563.53 529.31C549.275 520.207 535.669 510.126 522.81 499.14C513.03 490.78 505.02 480.01 494.57 472.51C488.16 467.91 480.7 463.72 472.86 464.56C463.32 465.56 456.28 473.56 449.63 480.46C427.28 503.67 399.08 520.28 374.14 540.69C353.78 557.33 334.75 577.1 309.95 585.88C311.06 589.56 311.45 593.24 312.57 596.88C313.965 601.94 315.706 606.898 317.78 611.72C319.836 615.99 322.15 620.131 324.71 624.12L334.65 640.35C336.65 643.65 338.74 647 341.6 649.62C343.1 651.06 345.95 651.58 345.95 653.67Z" fill="black"/>
<path d="M619.71 634.62C620.826 636.196 621.583 637.998 621.929 639.898C622.274 641.799 622.199 643.752 621.71 645.62C625.264 648.189 629.591 649.463 633.97 649.23C638.33 648.989 642.618 648.008 646.65 646.33C650.143 645.051 653.452 643.316 656.49 641.17C661.72 637.31 665.49 631.79 668.54 626.06C670.23 622.91 671.67 618.82 669.49 615.98C668.657 615.011 667.637 614.222 666.49 613.66C658.8 609.268 650.795 605.454 642.54 602.25C640.267 601.205 637.801 600.65 635.3 600.62C632.22 600.79 629.43 602.48 626.99 604.36C621.509 608.626 617.091 614.102 614.08 620.36C613.14 622.36 610.3 627.12 611.7 629.18C612.34 630.13 614.7 630.46 615.7 631.05C617.271 631.946 618.637 633.163 619.71 634.62V634.62Z" fill="#FBBEBE"/>
<path d="M665.5 610.96C682.42 614.11 697.98 622.28 714.61 626.69C721.34 628.47 728.27 629.69 734.7 632.31C741.13 634.93 747.19 639.41 749.96 645.79C751.13 648.853 751.906 652.052 752.27 655.31C752.99 659.92 753.58 665.07 750.84 668.85C747.95 672.85 742.49 673.74 737.6 674.32C720.02 676.42 702.44 678.51 684.8 679.99C681.235 680.212 677.686 680.636 674.17 681.26C671.27 681.85 668.44 682.72 665.56 683.4C661.84 684.28 658.04 684.82 654.26 685.4C644.59 686.78 634.81 688.18 625.1 687.11C620.67 686.62 615.71 685.19 613.76 681.19C612.95 679.117 612.609 676.89 612.76 674.67C612.76 668.74 612.66 662.8 612.76 656.87C612.85 650.78 613.15 644.46 615.91 639.03C616.597 637.369 617.886 636.03 619.52 635.28C620.526 634.992 621.578 634.897 622.62 635C627.82 635.18 633.2 635.4 637.85 637.72C641.54 639.55 644.2 634.08 647.96 635.72C655.09 638.87 650.26 629.32 657.46 632.29C659.14 627.11 666.28 630.19 665.04 624.88C663.8 619.57 668.25 621.88 667.74 616.42C667.718 615.229 667.488 614.051 667.06 612.94C666.5 611.87 666.68 610.79 665.5 610.96Z" fill="#464353"/>
<path opacity="0.06" d="M158.66 291.01C154.78 293.27 149.97 292.85 145.45 292.75C141.497 292.668 137.543 292.872 133.62 293.36C132.207 293.459 130.826 293.825 129.55 294.44C127.888 295.512 126.575 297.044 125.77 298.85C124.169 301.924 123.091 305.242 122.58 308.67C122.02 312.52 122.08 316.73 119.68 319.78C116.41 323.93 111.31 323.29 106.68 324.11C102.65 324.883 98.788 326.359 95.2697 328.47C91.8004 330.565 88.8236 333.383 86.5422 336.733C84.2608 340.082 82.7285 343.884 82.0497 347.88C81.9197 348.79 81.8297 349.69 81.7897 350.6C81.6897 353.18 81.9497 355.81 81.6097 358.34C81.5274 358.971 81.4004 359.596 81.2297 360.21C81.1854 360.39 81.1286 360.567 81.0597 360.74C80.9097 359.57 80.7397 358.42 80.5397 357.27C77.491 354.175 74.8496 350.704 72.6797 346.94C72.0947 346.291 71.6246 345.547 71.2897 344.74C68.0497 337.2 65.8397 329.57 65.8397 321.31C65.839 310.478 69.2639 299.923 75.6245 291.154C81.9851 282.386 90.9556 275.854 101.253 272.492C111.55 269.13 122.647 269.111 132.956 272.437C143.265 275.763 152.259 282.264 158.65 291.01H158.66Z" fill="black"/>
<path d="M161.95 271.33C159.38 265.38 153.95 261.16 148.37 257.85C137.37 251.29 124.71 247.17 111.87 247C105.391 247.002 98.9304 247.672 92.5897 249C86.4107 250.105 80.3573 251.823 74.5197 254.13C64.8873 258.136 56.373 264.423 49.7097 272.45C48.31 272.556 46.9217 272.78 45.5597 273.12C40.1197 274.48 35.2197 277.47 30.7497 280.86C27.009 283.57 23.6868 286.814 20.8897 290.49C17.616 295.184 15.3517 300.506 14.2397 306.12C10.4297 323.68 15.1197 341.8 18.5597 359.43C21.9997 377.06 24.0097 396.32 15.5597 412.16C12.3697 418.16 7.83967 423.26 4.43967 429.1C1.03967 434.94 -1.22032 441.97 0.709676 448.45C3.00968 456.33 10.7497 461.33 14.7897 468.42C17.2639 473.058 18.147 478.38 17.3033 483.568C16.4597 488.757 13.9359 493.525 10.1197 497.14C16.4697 499.34 23.5397 496.97 29.2597 493.45C33.7949 490.809 37.6533 487.149 40.5297 482.76C47.7197 471.12 44.5297 456.09 47.0297 442.64C50.3597 425.04 63.7997 409.34 61.9497 391.52C60.6997 379.52 52.7797 369.57 46.5497 359.28C42.3941 352.418 38.9016 345.175 36.1197 337.65C34.1197 332.28 32.4997 326.51 33.4897 320.87C33.8173 319.148 34.3441 317.47 35.0597 315.87C35.0597 316.06 35.0597 316.25 35.0597 316.44C35.1736 321.62 36.3371 326.723 38.4797 331.44C45.9197 346.64 65.7297 352.24 74.1197 366.93C76.5697 364.26 79.1197 361.46 80.1197 357.98C80.9997 354.88 80.5497 351.58 80.6797 348.36C81.0297 339.36 86.4997 330.88 94.1597 326.24C97.6753 324.126 101.539 322.653 105.57 321.89C110.19 321.06 115.29 321.69 118.57 317.54C120.97 314.54 120.91 310.28 121.48 306.44C121.987 303.008 123.065 299.686 124.67 296.61C125.472 294.805 126.786 293.275 128.45 292.21C129.727 291.59 131.113 291.223 132.53 291.13C136.45 290.642 140.4 290.438 144.35 290.52C148.92 290.63 153.81 291.04 157.73 288.69C163.25 285.33 164.52 277.33 161.95 271.33Z" fill="#464353"/>
<path d="M733.25 728.33L732.39 728.59Z" fill="#464353"/>
<path d="M730.1 611.95C730.137 611.613 730.197 611.279 730.28 610.95Z" fill="#464353"/>
<path opacity="0.06" d="M267.79 557.99C267.1 562.55 262.92 566.11 259.97 569.65C251.95 579.33 243.82 589.04 234.85 597.9C225.25 607.37 214.71 615.81 204.18 624.25L190.52 635.18C188.834 636.721 186.859 637.91 184.71 638.68C182.191 639.308 179.53 638.992 177.23 637.79C177.43 637.39 177.64 637.02 177.87 636.65L194.25 609.2C197.47 603.82 199.58 598.92 203.25 593.87C208.78 586.31 214.36 578.71 221.17 572.3C229.78 564.19 240.82 558.3 251.06 552.44C252.54 548 258.74 546.77 262.93 548.87C264.482 549.675 265.881 550.748 267.06 552.04C267.81 553.928 268.062 555.977 267.79 557.99V557.99Z" fill="black"/>
<path d="M195.39 610.33L179.01 637.79C178.34 638.9 177.65 640.16 177.94 641.42C178.308 642.477 179.01 643.387 179.94 644.01C186.22 649.12 193.18 654.51 195.15 662.36C196.56 667.96 195.15 673.96 196.41 679.58C198.72 689.72 208.91 695.88 218.55 699.78C240.15 708.52 264.13 711.88 287.08 707.78C310.03 703.68 331.81 692 346.67 674.04C351.23 668.52 355.13 662.48 359.46 656.78C371.46 641.03 386.69 628.1 401.8 615.3C421.25 598.82 432.71 574.24 449.8 555.3C452.91 551.85 456.34 548.3 460.8 547.16C463.3 546.53 466.8 547.46 466.9 550.04C467.13 555.04 471.15 559.13 473.9 563.31C484.26 579.15 495.1 595.48 511.11 605.58C519.87 611.12 529.8 614.51 539.7 617.58C564.8 625.4 590.39 631.58 615.95 637.7C617.24 635.12 618.788 632.678 620.57 630.41C623.22 627.16 626.71 624.68 629.37 621.41C634.24 615.52 635.95 607.73 637.51 600.25C622.24 590.9 606.57 581.25 591.51 571.53C583.93 566.65 576.3 561.66 570.16 555.06C566.16 550.72 562.8 545.75 558.79 541.38C554.688 537.139 550.268 533.218 545.57 529.65L509.57 500.82C499.23 492.55 488.69 483.82 478.57 475.26C472.88 470.44 466.57 465.37 459.13 465.14C452.76 464.94 446.9 468.35 441.42 471.63C409.233 490.903 376.566 509.31 343.42 526.85C336.71 530.39 329.97 533.91 323.57 537.98C311.117 545.902 300.061 555.829 290.85 567.36C289.16 569.47 287.02 571.87 284.34 571.55C283.603 571.442 282.894 571.194 282.25 570.82C278.12 568.61 275.59 564.34 273.25 560.29C270.91 556.24 268.3 551.98 264.11 549.88C259.92 547.78 253.73 549.01 252.24 553.46C241.95 559.49 230.95 565.33 222.33 573.44C215.52 579.85 209.94 587.44 204.41 595.01C200.72 600.06 198.6 604.96 195.39 610.33Z" fill="#464353"/>
<path opacity="0.06" d="M168.56 442.85C168.56 442.85 185.03 450.16 196.84 458.41Z" fill="black"/>
<path opacity="0.06" d="M96.6597 441.5C83.5497 444.09 76.7297 459.5 77.4997 472.83C78.2396 484.736 83.1298 496.006 91.3197 504.68C96.7897 510.43 103.61 514.87 108.55 521.08C115.85 530.24 118.39 542.35 124.92 552.08C129.66 559.14 136.31 564.68 142.92 569.99C158.16 582.15 173.896 593.66 190.13 604.52C196.73 608.93 203.95 613.39 211.89 613.22C219.37 613.06 226.26 608.67 231.14 602.99C236.02 597.31 239.14 590.41 242.31 583.61C253.73 558.71 265.23 533.54 270.69 506.7C272.4 498.27 273.55 489.58 277.37 481.87C280.37 475.87 284.81 470.73 288.77 465.31C298.125 452.449 304.692 437.776 308.05 422.23C310.23 412.09 310.96 401.23 307.38 391.53C303.8 381.83 295.11 373.42 284.76 372.66C276.57 372.06 268.53 376.26 263.03 382.37C257.53 388.48 254.29 396.29 252.08 404.2C248.911 415.58 247.694 427.414 248.48 439.2C249.12 448.71 251.06 458.31 249.42 467.71C248.26 474.34 245.37 480.53 242.51 486.63C235.12 502.37 227.61 518.31 216.44 531.63C212.8 535.97 207.79 540.36 202.22 539.34C194.52 537.94 192.48 528.19 188.68 521.34C184.02 512.94 175.18 507.89 168.25 501.22C158.39 491.72 152.48 478.98 145.47 467.22C138.46 455.46 129.39 443.85 116.47 439.34C103.55 434.83 86.3297 440.62 83.0097 453.9" fill="black"/>
<path opacity="0.06" d="M106.55 450.63C93.4296 453.22 76.7296 454.91 77.5496 468.26C78.2812 480.168 83.1726 491.441 91.3696 500.11C96.8396 505.87 103.66 510.31 108.6 516.52C115.9 525.68 118.44 537.78 124.97 547.52C129.71 554.59 136.36 560.13 142.97 565.43C158.21 577.597 173.946 589.107 190.18 599.96C196.78 604.38 204 608.84 211.94 608.67C219.42 608.51 226.31 604.11 231.19 598.44C236.07 592.77 239.19 585.86 242.36 579.05C253.78 554.15 265.28 528.98 270.74 502.14C272.45 493.72 273.6 485.02 277.42 477.32C280.42 471.32 284.86 466.18 288.82 460.75C298.177 447.893 304.744 433.223 308.1 417.68C310.28 407.53 311.01 396.68 307.43 386.97C303.85 377.26 295.16 368.87 284.81 368.1C276.62 367.5 268.58 371.71 263.08 377.81C257.58 383.91 254.34 391.73 252.13 399.65C248.961 411.029 247.744 422.864 248.53 434.65C249.17 444.17 251.11 453.77 249.47 463.16C248.31 469.8 245.42 475.99 242.56 482.09C235.17 497.83 227.66 513.76 216.49 527.09C212.85 531.43 207.84 535.81 202.27 534.8C194.57 533.39 192.53 523.64 188.73 516.8C184.07 508.4 175.23 503.35 168.3 496.68C158.44 487.19 152.53 474.44 145.52 462.68C138.51 450.92 129.44 439.32 116.52 434.8C103.6 430.28 119.78 459.23 116.45 472.51" fill="black"/>
<path d="M96.6597 439.21C83.5497 441.8 76.7297 457.21 77.4997 470.54C78.2373 482.45 83.1277 493.724 91.3197 502.4C96.7897 508.15 103.61 512.59 108.55 518.8C115.85 527.96 118.39 540.07 124.92 549.8C129.66 556.87 136.31 562.41 142.92 567.72C158.16 579.88 173.896 591.387 190.13 602.24C196.73 606.66 203.95 611.12 211.89 610.95C219.37 610.79 226.26 606.4 231.14 600.72C236.02 595.04 239.14 588.14 242.31 581.34C253.73 556.44 265.23 531.27 270.69 504.42C272.4 496 273.55 487.3 277.37 479.6C280.37 473.6 284.81 468.46 288.77 463.03C298.127 450.173 304.694 435.503 308.05 419.96C310.23 409.81 310.96 398.96 307.38 389.25C303.8 379.54 295.11 371.15 284.76 370.39C276.57 369.78 268.53 373.99 263.03 380.1C257.53 386.21 254.29 394.02 252.08 401.93C248.911 413.31 247.694 425.144 248.48 436.93C249.12 446.44 251.06 456.04 249.42 465.43C248.26 472.07 245.37 478.26 242.51 484.36C235.12 500.1 227.61 516.04 216.44 529.36C212.8 533.7 207.79 538.08 202.22 537.07C194.52 535.66 192.48 525.92 188.68 519.07C184.02 510.66 175.18 505.61 168.25 498.95C158.39 489.45 152.48 476.71 145.47 464.95C138.46 453.19 129.39 441.59 116.47 437.08C103.55 432.57 86.3297 438.36 83.0097 451.64" fill="#FBBEBE"/>
<g opacity="0.06">
<path opacity="0.06" d="M46.5496 359.33C42.394 352.467 38.9016 345.225 36.1196 337.7L35.7796 336.7C33.6694 334.435 31.8946 331.879 30.5096 329.11C28.3657 324.393 27.2022 319.29 27.0896 314.11C27.0896 313.92 27.0896 313.73 27.0896 313.54C26.3741 315.14 25.8472 316.818 25.5196 318.54C24.5196 324.18 26.1696 329.94 28.1496 335.32C30.9335 342.844 34.4259 350.086 38.5796 356.95C44.7896 367.33 52.7196 377.33 53.9496 389.24C55.7996 407.06 42.3596 422.75 39.0396 440.36C36.4996 453.81 39.7196 468.84 32.5296 480.48C29.6557 484.869 25.7966 488.526 21.2596 491.16C18.414 492.973 15.2986 494.323 12.0296 495.16C11.4335 495.867 10.7921 496.535 10.1096 497.16C16.4596 499.36 23.5296 496.99 29.2496 493.47C33.7848 490.829 37.6432 487.169 40.5196 482.78C47.7096 471.14 44.5196 456.11 47.0196 442.66C50.3496 425.06 63.7896 409.36 61.9396 391.54C60.6996 379.56 52.7796 369.57 46.5496 359.33Z" fill="black"/>
<path opacity="0.06" d="M161.95 271.33C159.38 265.38 153.95 261.16 148.37 257.85C141.296 253.605 133.599 250.501 125.56 248.65C130.719 250.451 135.684 252.766 140.38 255.56C145.96 258.88 151.38 263.09 153.97 269.05C156.56 275.01 155.27 283.05 149.71 286.37C145.79 288.72 140.9 288.3 136.33 288.2C132.38 288.11 128.43 288.31 124.51 288.8C123.094 288.902 121.71 289.268 120.43 289.88C118.761 290.961 117.447 292.508 116.65 294.33C115.042 297.405 113.96 300.728 113.45 304.16C112.89 308 112.94 312.21 110.54 315.26C107.28 319.41 102.18 318.78 97.5396 319.6C93.5101 320.373 89.648 321.849 86.1296 323.96C78.4696 328.59 72.9996 337.05 72.6496 346.08C72.5296 349.3 72.9696 352.59 72.0996 355.69C71.5384 357.498 70.6578 359.192 69.4996 360.69C71.2716 362.584 72.8216 364.674 74.1196 366.92C76.5696 364.25 79.1196 361.45 80.1196 357.97C80.9996 354.87 80.5496 351.57 80.6796 348.35C81.0296 339.35 86.4996 330.87 94.1596 326.23C97.6753 324.116 101.539 322.643 105.57 321.88C110.19 321.05 115.29 321.68 118.57 317.53C120.97 314.53 120.91 310.27 121.48 306.43C121.987 302.998 123.065 299.675 124.67 296.6C125.472 294.795 126.786 293.265 128.45 292.2C129.727 291.58 131.113 291.213 132.53 291.12C136.45 290.632 140.4 290.428 144.35 290.51C148.92 290.62 153.81 291.03 157.73 288.68C163.25 285.33 164.52 277.33 161.95 271.33Z" fill="black"/>
</g>
<path opacity="0.06" d="M96.4697 366.88C96.4697 366.88 108.28 377.04 130.71 370.88C130.71 370.86 116.82 376.33 96.4697 366.88Z" fill="black"/>
<path d="M35.6996 622.08C35.6996 622.08 37.2896 620.31 34.2996 619.61V616.7H36.0996C36.0957 613.184 34.885 609.776 32.6698 607.046C30.4546 604.315 27.3693 602.428 23.9296 601.7V598.17H24.3996V593.58H12.8296V598.17H13.1596V601.74C9.75226 602.504 6.70687 604.406 4.52548 607.133C2.34408 609.859 1.1569 613.248 1.15963 616.74H2.74963V619.53C2.74963 619.53 -1.04037 621.32 2.74963 624.53C6.53963 627.74 5.94963 630.06 5.94963 630.06C5.94963 630.06 4.35963 636.06 1.16963 636.84V692.47C1.16831 694.094 1.48704 695.702 2.1076 697.203C2.72816 698.704 3.63839 700.067 4.78625 701.216C5.93411 702.365 7.29712 703.276 8.79735 703.898C10.2976 704.52 11.9056 704.84 13.5296 704.84H23.2996C26.5804 704.84 29.7267 703.537 32.0465 701.217C34.3664 698.897 35.6696 695.751 35.6696 692.47V636.84C35.6696 636.84 30.0796 632.65 31.0796 630.06C32.4212 627.29 33.9654 624.623 35.6996 622.08V622.08Z" fill="#464353"/>
<g clip-path="url(#clip0)">
<path d="M1504.05 130.285C1530.77 169.27 1524.86 219.772 1524.86 219.772C1524.86 219.772 1475.62 207.067 1448.9 168.082C1422.18 129.097 1428.09 78.5945 1428.09 78.5945C1428.09 78.5945 1477.33 91.2994 1504.05 130.285Z" fill="#2F2E41"/>
<path d="M1484.82 137.729C1487.95 184.888 1523.84 220.907 1523.84 220.907C1523.84 220.907 1554.66 180.465 1551.53 133.306C1548.41 86.146 1512.52 50.1271 1512.52 50.1271C1512.52 50.1271 1481.7 90.5689 1484.82 137.729Z" fill="#6C63FF"/>
<path d="M1178.05 0.982014L1540.82 183.371C1543.84 184.888 1546.34 187.261 1548.01 190.193C1549.69 193.125 1550.46 196.485 1550.23 199.854L1529.15 512.058C1529.06 513.458 1528.62 514.813 1527.87 516.002C1527.13 517.191 1526.1 518.177 1524.88 518.871C1523.66 519.566 1522.29 519.948 1520.88 519.982C1519.48 520.017 1518.09 519.704 1516.84 519.071L1145.79 329.707L1164.84 8.59276C1164.93 7.08436 1165.39 5.62181 1166.19 4.33645C1166.98 3.0511 1168.08 1.9832 1169.39 1.22866C1170.7 0.474127 1172.18 0.0565817 1173.69 0.0135308C1175.2 -0.0295202 1176.7 0.30327 1178.05 0.982014V0.982014Z" fill="#D0CDE1"/>
<path d="M1182.22 7.34406L1536.09 185.254C1539.03 186.733 1541.47 189.047 1543.1 191.907C1544.73 194.767 1545.49 198.045 1545.26 201.331L1524.7 505.867C1524.61 507.233 1524.18 508.554 1523.46 509.714C1522.73 510.874 1521.73 511.835 1520.54 512.513C1519.35 513.19 1518.01 513.563 1516.64 513.597C1515.27 513.631 1513.91 513.325 1512.69 512.707L1150.76 327.995L1169.34 14.7679C1169.43 13.2965 1169.88 11.8699 1170.65 10.6161C1171.43 9.36232 1172.5 8.32066 1173.78 7.58465C1175.06 6.84865 1176.5 6.44136 1177.97 6.39937C1179.44 6.35737 1180.9 6.68199 1182.22 7.34406V7.34406Z" fill="#3F3D56"/>
<path d="M1197.73 30.9746L1518.5 192.244C1521.16 193.585 1523.38 195.683 1524.86 198.276C1526.34 200.868 1527.02 203.84 1526.82 206.818L1508.18 482.871C1508.1 484.109 1507.71 485.307 1507.05 486.358C1506.39 487.409 1505.48 488.281 1504.4 488.895C1503.32 489.509 1502.11 489.847 1500.87 489.878C1499.63 489.908 1498.4 489.631 1497.29 489.072L1169.21 321.635L1186.05 37.7041C1186.13 36.3703 1186.54 35.0771 1187.24 33.9406C1187.95 32.8041 1188.92 31.8599 1190.08 31.1927C1191.24 30.5255 1192.54 30.1563 1193.88 30.1183C1195.21 30.0802 1196.54 30.3745 1197.73 30.9746V30.9746Z" fill="white"/>
<path d="M866.746 483.331L1229.98 666.263C1233.36 667.963 1237.1 668.845 1240.88 668.84C1244.66 668.836 1248.39 667.943 1251.77 666.234L1520.48 529.827C1523.63 526.676 1523.19 522.006 1522.19 518.501C1521.7 516.803 1521.03 515.162 1520.2 513.604L1483.58 494.345L1175.71 340.735L1157.32 330.97C1152.45 328.392 1147.02 327.033 1141.51 327.011C1136 326.988 1130.57 328.303 1125.68 330.843L866.632 465.405C864.984 466.257 863.604 467.549 862.644 469.137C861.684 470.725 861.183 472.548 861.194 474.403C861.206 476.258 861.731 478.074 862.711 479.65C863.691 481.226 865.087 482.5 866.746 483.331V483.331Z" fill="#D0CDE1"/>
<path opacity="0.1" d="M866.746 483.331L1229.98 666.263C1233.36 667.963 1237.1 668.845 1240.88 668.84C1244.66 668.836 1248.39 667.943 1251.77 666.234L1520.48 529.827C1523.63 526.676 1523.19 522.006 1522.19 518.501L1254.28 657.754C1251.01 659.453 1247.38 660.356 1243.7 660.387C1240.01 660.419 1236.37 659.579 1233.08 657.936L861.324 472.729C860.975 474.843 861.313 477.015 862.289 478.923C863.264 480.831 864.827 482.376 866.746 483.331V483.331Z" fill="black"/>
<path opacity="0.1" d="M1211.52 538.141L1093.88 478.696C1091.51 477.499 1088.89 476.89 1086.24 476.92C1083.58 476.951 1080.98 477.619 1078.64 478.869L1010.4 515.327C1009.61 515.748 1008.95 516.378 1008.5 517.147C1008.04 517.917 1007.81 518.796 1007.82 519.69C1007.83 520.584 1008.08 521.458 1008.56 522.216C1009.03 522.975 1009.7 523.589 1010.5 523.991L1130.44 584.474C1132.43 585.478 1134.64 585.977 1136.87 585.926C1139.1 585.874 1141.28 585.275 1143.23 584.18L1211.74 545.581C1212.41 545.205 1212.96 544.653 1213.34 543.986C1213.71 543.318 1213.9 542.56 1213.88 541.794C1213.85 541.028 1213.62 540.282 1213.21 539.638C1212.79 538.995 1212.21 538.477 1211.52 538.141V538.141Z" fill="black"/>
<path opacity="0.1" d="M1488.57 528.199L1361.98 595.448C1360.52 596.222 1358.9 596.635 1357.25 596.651C1355.6 596.668 1353.97 596.288 1352.5 595.544L994.842 414.674C993.834 414.164 992.988 413.384 992.398 412.42C991.809 411.457 991.499 410.349 991.504 409.22C991.509 408.09 991.828 406.985 992.426 406.026C993.024 405.068 993.876 404.295 994.888 403.795L1118.5 342.612C1120.37 341.689 1122.42 341.213 1124.5 341.221C1126.58 341.228 1128.62 341.719 1130.48 342.654L1488.51 523.046C1488.98 523.285 1489.38 523.651 1489.67 524.102C1489.95 524.554 1490.1 525.074 1490.11 525.606C1490.11 526.138 1489.97 526.661 1489.7 527.118C1489.43 527.576 1489.04 527.95 1488.57 528.199Z" fill="black"/>
<path d="M1286.62 192.821L1285.98 194.091L1402.37 252.281L1403 251.012L1286.62 192.821Z" fill="#6C63FF"/>
<path d="M1286.61 209.887L1285.96 211.149L1402.38 270.698L1403.02 269.435L1286.61 209.887Z" fill="#6C63FF"/>
<path d="M1307.92 242.49L1307.27 243.754L1373.97 277.834L1374.62 276.57L1307.92 242.49Z" fill="#6C63FF"/>
<path d="M943.527 313.547C943.527 313.547 915.146 301.18 901.816 314.244C888.486 327.307 937.507 323.007 943.527 313.547Z" fill="#3F3D56"/>
<path d="M894.521 254.898C904.059 238.783 922.928 238.032 922.928 238.032C922.928 238.032 941.315 235.68 953.11 260.224C964.103 283.101 979.276 305.189 955.552 310.544L951.267 297.207L948.613 311.537C945.235 311.78 941.847 311.838 938.463 311.711C913.056 310.89 888.86 311.951 889.639 302.834C890.675 290.714 885.344 270.404 894.521 254.898Z" fill="#2F2E41"/>
<path d="M881.176 547.041C881.176 547.041 893.216 569.401 900.956 569.401C908.696 569.401 907.836 584.021 906.116 587.461C904.396 590.901 900.096 598.641 906.976 609.822C909.38 613.727 908.95 618.157 907.373 622.268C902.954 633.788 885.766 630.298 886.314 617.972C886.32 617.836 886.327 617.699 886.336 617.562C887.196 603.802 880.316 582.301 873.436 577.141C866.556 571.981 860.536 558.221 860.536 558.221L881.176 547.041Z" fill="#FFB8B8"/>
<path d="M963.737 541.881C963.737 541.881 951.697 564.241 943.957 564.241C936.217 564.241 937.077 578.861 938.797 582.301C940.517 585.741 944.817 593.481 937.937 604.661C935.534 608.567 935.964 612.997 937.541 617.108C941.959 628.628 959.147 625.138 958.599 612.812C958.593 612.676 958.586 612.539 958.577 612.402C957.717 598.641 964.597 577.141 971.477 571.981C978.357 566.821 984.378 553.061 984.378 553.061L963.737 541.881Z" fill="#FFB8B8"/>
<path d="M954.277 431.799L959.437 442.979C959.437 442.979 1035.12 467.919 1028.24 497.16C1021.36 526.4 987.818 571.981 982.658 570.261C977.497 568.541 949.977 563.381 949.117 548.761C948.257 534.14 968.897 508.34 968.897 508.34L940.517 482.54L899.219 481.68L863.976 508.34C863.976 508.34 900.956 541.02 884.616 553.921C868.276 566.821 844.195 575.421 840.755 570.261C837.315 565.101 798.615 488.56 804.635 481.68C810.655 474.799 871.716 448.999 871.716 448.999L888.056 425.779L951.697 422.339L954.277 431.799Z" fill="#2F2E41"/>
<path d="M938.797 289.896C938.797 289.896 934.497 318.277 943.097 321.717C951.697 325.157 925.897 339.777 925.897 339.777H911.276L901.816 319.997C901.816 319.997 910.416 304.517 905.256 289.896C900.096 275.276 938.797 289.896 938.797 289.896Z" fill="#FFB8B8"/>
<path opacity="0.1" d="M938.797 289.896C938.797 289.896 934.497 318.277 943.097 321.717C951.697 325.157 925.897 339.777 925.897 339.777H911.276L901.816 319.997C901.816 319.997 910.416 304.517 905.256 289.896C900.096 275.276 938.797 289.896 938.797 289.896Z" fill="black"/>
<path d="M944.817 313.977C944.817 313.977 935.357 324.297 933.637 326.017C931.917 327.737 924.177 337.197 907.836 323.437C891.496 309.677 889.776 326.017 889.776 326.017V429.219C889.776 429.219 903.536 423.199 914.716 429.219C925.897 435.239 949.117 427.499 949.117 427.499L953.417 320.857L944.817 313.977Z" fill="#D0CDE1"/>
<path d="M938.5 313.977C938.5 313.977 946.537 310.537 953.417 313.977C960.297 317.417 984.378 334.617 982.657 342.357C980.937 350.097 958.577 404.278 974.057 430.079C989.538 455.879 992.118 462.759 992.118 462.759L954.277 442.979C954.277 442.979 925.037 424.919 927.617 413.738C930.197 402.558 938.5 313.977 938.5 313.977Z" fill="#3F3D56"/>
<path d="M904.386 313.977C904.386 313.977 886.336 315.697 885.476 317.417C884.616 319.137 858.386 326.447 860.106 334.187C861.826 341.927 885.476 411.158 875.156 424.059C864.836 436.959 847.635 455.019 853.656 456.739C859.676 458.459 869.996 454.159 880.316 456.739C890.636 459.319 914.716 437.819 912.136 414.598C909.556 391.378 912.116 319.997 904.386 313.977Z" fill="#3F3D56"/>
<path d="M1044.26 454.49L1050.34 460.572C1050.34 460.572 1067.36 471.518 1057.03 480.64C1046.69 489.761 1036.35 467.261 1036.35 467.261L1031.49 461.18L1044.26 454.49Z" fill="#FFB8B8"/>
<path d="M908.696 479.1C908.696 479.1 918.156 498.88 908.696 500.6C899.236 502.32 892.356 489.42 892.356 485.98C892.356 482.54 908.696 479.1 908.696 479.1Z" fill="#FFB8B8"/>
<path d="M896.226 281.726C897.176 281.726 897.946 280.186 897.946 278.286C897.946 276.386 897.176 274.846 896.226 274.846C895.276 274.846 894.506 276.386 894.506 278.286C894.506 280.186 895.276 281.726 896.226 281.726Z" fill="#FFB8B8"/>
<path d="M946.967 281.726C947.917 281.726 948.687 280.186 948.687 278.286C948.687 276.386 947.917 274.846 946.967 274.846C946.017 274.846 945.247 276.386 945.247 278.286C945.247 280.186 946.017 281.726 946.967 281.726Z" fill="#FFB8B8"/>
<path d="M881.176 325.157C881.176 325.157 859.676 325.157 860.536 333.757C861.396 342.357 889.776 490.28 889.776 490.28C889.776 490.28 901.816 479.099 912.136 481.68L881.176 325.157Z" fill="#3F3D56"/>
<path d="M953.325 339.203C953.325 339.203 971.568 327.041 980.69 336.162C989.812 345.284 1055.49 454.746 1052.45 457.787C1049.41 460.827 1036.03 470.557 1032.99 467.517C1029.95 464.476 953.325 339.203 953.325 339.203Z" fill="#3F3D56"/>
<path opacity="0.2" d="M959.867 353.107L940.517 428.781C940.517 428.781 949.547 362.568 959.867 353.107Z" fill="black"/>
<path opacity="0.2" d="M884.601 342.474L904.172 441.414C904.172 441.414 897.917 348.182 884.601 342.474Z" fill="black"/>
<path d="M921.597 303.657C935.371 303.657 946.537 292.49 946.537 278.716C946.537 264.942 935.371 253.776 921.597 253.776C907.822 253.776 896.656 264.942 896.656 278.716C896.656 292.49 907.822 303.657 921.597 303.657Z" fill="#FFB8B8"/>
<path d="M898.738 253.344L917.38 243.58L943.123 247.574L948.449 271.098L935.191 270.589L931.487 261.946V270.446L925.369 270.211L921.818 256.451L919.599 271.098L897.85 270.655L898.738 253.344Z" fill="#2F2E41"/>
<path d="M1200.92 64.4901L1200.27 65.7542L1266.97 99.8344L1267.62 98.5703L1200.92 64.4901Z" fill="white"/>
<path d="M1195.92 76.4901L1195.27 77.7542L1261.97 111.834L1262.62 110.57L1195.92 76.4901Z" fill="white"/>
<g filter="url(#filter0_d)">
<g opacity="0.5">
<path opacity="0.5" d="M1322.21 236.475L1333.2 236.701L1335 239.158V247.65L1332.76 249.214H1322.21L1319.96 246.756V238.71L1322.21 236.475Z" fill="#6C63FF"/>
<path opacity="0.2" d="M1322.44 237.816C1322.44 237.816 1332.54 239.38 1333.43 237.816L1333.21 236.7L1322.44 236.465V237.816Z" fill="white"/>
<path opacity="0.5" d="M1321.31 261.056L1319.51 262.846V271.354L1321.31 273.114C1321.31 273.114 1327.82 275.349 1332.08 273.559L1334.1 271.55V263.042L1332.31 261.03L1321.31 261.056Z" fill="#6C63FF"/>
<path opacity="0.2" d="M1321.76 263.068C1321.76 263.068 1329.61 264.855 1332.31 263.068V261.056H1321.31L1321.76 263.068Z" fill="white"/>
<path opacity="0.5" d="M1325.57 249.154V261.242C1325.6 261.721 1325.81 262.17 1326.17 262.491C1326.53 262.813 1327 262.98 1327.48 262.957V262.957C1327.96 262.98 1328.43 262.813 1328.79 262.491C1329.15 262.17 1329.36 261.721 1329.39 261.242V249.154C1329.39 248.127 1328.4 247.332 1327.26 247.45C1326.81 247.477 1326.4 247.666 1326.09 247.981C1325.78 248.295 1325.59 248.714 1325.57 249.154V249.154Z" fill="#6C63FF"/>
<path opacity="0.5" d="M1304.59 236.821L1315.59 237.044L1317.39 239.501V247.993L1315.14 249.557H1304.59L1302.35 247.099V239.053L1304.59 236.821Z" fill="#6C63FF"/>
<path opacity="0.2" d="M1304.82 238.16C1304.82 238.16 1314.92 239.724 1315.82 238.16L1315.59 237.044L1304.82 236.821V238.16Z" fill="white"/>
<path opacity="0.5" d="M1303.7 261.399L1301.91 263.189V271.697L1303.7 273.468C1303.7 273.468 1310.21 275.703 1314.48 273.913L1316.5 271.903V263.412L1314.7 261.399H1303.7Z" fill="#6C63FF"/>
<path opacity="0.2" d="M1304.15 263.412C1304.15 263.412 1312 265.198 1314.69 263.412V261.399H1303.7L1304.15 263.412Z" fill="white"/>
<path opacity="0.5" d="M1307.97 249.498V261.586C1308 262.064 1308.22 262.513 1308.57 262.834C1308.93 263.155 1309.4 263.323 1309.88 263.301V263.301C1310.36 263.324 1310.83 263.156 1311.19 262.835C1311.55 262.514 1311.76 262.065 1311.79 261.586V249.498C1311.79 248.471 1310.8 247.675 1309.66 247.793C1309.22 247.82 1308.8 248.009 1308.49 248.324C1308.18 248.639 1307.99 249.057 1307.97 249.498V249.498Z" fill="#6C63FF"/>
<path opacity="0.5" d="M1282.17 243.284L1291.23 243.471L1292.71 245.493V252.482L1290.86 253.772H1282.17L1280.32 251.746V245.123L1282.17 243.284Z" fill="#6C63FF"/>
<path opacity="0.2" d="M1282.36 244.39C1282.36 244.39 1290.67 245.676 1291.41 244.39L1291.23 243.471L1282.35 243.284L1282.36 244.39Z" fill="white"/>
<path opacity="0.5" d="M1281.44 263.52L1279.96 264.992V271.982L1281.44 273.454C1281.44 273.454 1286.79 275.293 1290.31 273.821L1291.97 272.165V265.176L1290.49 263.52H1281.44Z" fill="#6C63FF"/>
<path opacity="0.2" d="M1281.8 265.176C1281.8 265.176 1288.27 266.648 1290.49 265.176V263.52H1281.44L1281.8 265.176Z" fill="white"/>
<path opacity="0.5" d="M1284.95 253.723V263.674C1284.97 264.068 1285.14 264.437 1285.44 264.702C1285.73 264.966 1286.12 265.104 1286.52 265.084V265.084C1286.91 265.104 1287.3 264.966 1287.59 264.702C1287.89 264.437 1288.06 264.067 1288.08 263.674V253.723C1288.07 253.512 1288.02 253.307 1287.92 253.119C1287.82 252.932 1287.69 252.767 1287.52 252.634C1287.36 252.502 1287.16 252.406 1286.96 252.351C1286.76 252.297 1286.54 252.286 1286.33 252.319C1285.97 252.341 1285.62 252.497 1285.37 252.756C1285.11 253.015 1284.96 253.359 1284.95 253.723Z" fill="#6C63FF"/>
<path opacity="0.5" d="M1267.67 243.569L1276.73 243.752L1278.21 245.774V252.767L1276.36 254.053H1267.67L1265.83 252.031V245.408L1267.67 243.569Z" fill="#6C63FF"/>
<path opacity="0.2" d="M1267.86 244.671C1267.86 244.671 1276.17 245.961 1276.91 244.671L1276.73 243.752L1267.86 243.569L1267.86 244.671Z" fill="white"/>
<path opacity="0.5" d="M1266.94 263.805L1265.46 265.274V272.263L1266.94 273.736C1266.94 273.736 1272.3 275.575 1275.81 274.106L1277.47 272.46V265.46L1275.99 263.805H1266.94Z" fill="#6C63FF"/>
<path opacity="0.2" d="M1267.31 265.46C1267.31 265.46 1273.77 266.93 1275.99 265.46V263.805H1266.94L1267.31 265.46Z" fill="white"/>
<path opacity="0.5" d="M1270.45 254.004V263.952C1270.47 264.346 1270.64 264.716 1270.94 264.98C1271.23 265.244 1271.62 265.382 1272.02 265.362C1272.41 265.382 1272.8 265.244 1273.09 264.98C1273.39 264.716 1273.57 264.346 1273.59 263.952V254.004C1273.59 253.16 1272.77 252.505 1271.83 252.603C1271.47 252.625 1271.13 252.78 1270.87 253.039C1270.61 253.297 1270.46 253.641 1270.45 254.004V254.004Z" fill="#6C63FF"/>
</g>
<path d="M1261.33 307.938C1260.96 308.453 1260.71 309.043 1260.59 309.665C1260.48 310.287 1260.51 310.926 1260.67 311.537C1259.5 312.376 1258.07 312.789 1256.63 312.709C1255.2 312.631 1253.79 312.309 1252.47 311.757C1251.32 311.339 1250.24 310.772 1249.24 310.068C1247.52 308.805 1246.28 306.999 1245.29 305.127C1244.74 304.093 1244.26 302.754 1244.96 301.825C1245.24 301.51 1245.58 301.252 1245.95 301.066C1248.48 299.628 1251.12 298.38 1253.84 297.332C1254.58 296.99 1255.4 296.809 1256.22 296.802C1257.23 296.858 1258.14 297.408 1258.95 298.023C1260.75 299.418 1262.2 301.21 1263.19 303.258C1263.5 303.913 1264.43 305.467 1263.97 306.141C1263.76 306.452 1262.98 306.56 1262.66 306.756C1262.13 307.052 1261.68 307.455 1261.33 307.938V307.938Z" fill="#FBBEBE"/>
<path opacity="0.03" d="M1261.33 307.938C1260.96 308.453 1260.71 309.043 1260.59 309.665C1260.48 310.287 1260.51 310.926 1260.67 311.537C1259.5 312.376 1258.07 312.789 1256.63 312.709C1255.2 312.631 1253.79 312.309 1252.47 311.757C1251.32 311.339 1250.24 310.772 1249.24 310.068C1247.52 308.805 1246.28 306.999 1245.29 305.127C1244.74 304.093 1244.26 302.754 1244.96 301.825C1245.24 301.51 1245.58 301.252 1245.95 301.066C1248.48 299.628 1251.12 298.38 1253.84 297.332C1254.58 296.99 1255.4 296.809 1256.22 296.802C1257.23 296.858 1258.14 297.408 1258.95 298.023C1260.75 299.418 1262.2 301.21 1263.19 303.258C1263.5 303.913 1264.43 305.467 1263.97 306.141C1263.76 306.452 1262.98 306.56 1262.66 306.756C1262.13 307.052 1261.68 307.455 1261.33 307.938V307.938Z" fill="black"/>
<path d="M1247.72 300.356C1242.15 301.383 1237.04 304.06 1231.58 305.503C1229.36 306.086 1227.09 306.485 1224.97 307.342C1222.86 308.2 1220.87 309.666 1219.96 311.753C1219.57 312.755 1219.32 313.802 1219.2 314.868C1218.96 316.377 1218.77 318.062 1219.67 319.299C1220.62 320.608 1222.41 320.896 1224.02 321.089C1229.8 321.773 1235.57 322.46 1241.37 322.944C1242.55 323.015 1243.72 323.154 1244.87 323.36C1245.83 323.55 1246.76 323.838 1247.7 324.06C1248.93 324.345 1250.17 324.525 1251.42 324.715C1254.59 325.17 1257.81 325.624 1261 325.278C1262.46 325.117 1264.09 324.649 1264.73 323.34C1264.99 322.662 1265.11 321.933 1265.06 321.207C1265.07 319.263 1265.09 317.323 1265.06 315.382C1265.03 313.389 1264.93 311.321 1264.02 309.544C1263.8 309 1263.37 308.562 1262.83 308.317C1262.5 308.223 1262.16 308.192 1261.81 308.226C1260.11 308.285 1258.34 308.357 1256.81 309.116C1255.6 309.715 1254.61 310.713 1253.38 311.256C1251.04 312.29 1248.21 311.547 1245.84 312.519C1245.29 310.824 1245.41 309.109 1245.83 307.372C1246.24 305.634 1246.81 303.929 1246.99 302.156C1246.99 301.766 1247.07 301.381 1247.21 301.017C1247.39 300.654 1247.33 300.3 1247.72 300.356Z" fill="#464353"/>
<path opacity="0.06" d="M1247.72 300.356C1242.15 301.383 1237.04 304.06 1231.58 305.503C1229.36 306.086 1227.09 306.485 1224.97 307.342C1222.86 308.2 1220.87 309.666 1219.96 311.753C1219.57 312.755 1219.32 313.802 1219.2 314.868C1218.96 316.377 1218.77 318.062 1219.67 319.299C1220.62 320.608 1222.41 320.896 1224.02 321.089C1229.8 321.773 1235.57 322.46 1241.37 322.944C1242.55 323.015 1243.72 323.154 1244.87 323.36C1245.83 323.55 1246.76 323.838 1247.7 324.06C1248.93 324.345 1250.17 324.525 1251.42 324.715C1254.59 325.17 1257.81 325.624 1261 325.278C1262.46 325.117 1264.09 324.649 1264.73 323.34C1264.99 322.662 1265.11 321.933 1265.06 321.207C1265.07 319.263 1265.09 317.323 1265.06 315.382C1265.03 313.389 1264.93 311.321 1264.02 309.544C1263.8 309 1263.37 308.562 1262.83 308.317C1262.5 308.223 1262.16 308.192 1261.81 308.226C1260.11 308.285 1258.34 308.357 1256.81 309.116C1255.6 309.715 1254.61 310.713 1253.38 311.256C1251.04 312.29 1248.21 311.547 1245.84 312.519C1245.29 310.824 1245.41 309.109 1245.83 307.372C1246.24 305.634 1246.81 303.929 1246.99 302.156C1246.99 301.766 1247.07 301.381 1247.21 301.017C1247.39 300.654 1247.33 300.3 1247.72 300.356Z" fill="black"/>
<path d="M1433.48 244.56C1434.6 244.207 1435.68 245.195 1436.31 246.196C1438.91 250.28 1438.7 255.732 1436.61 260.104C1436.12 261.212 1435.43 262.227 1434.59 263.104C1433.46 264.213 1432 264.924 1430.65 265.722C1426.88 267.937 1423.65 270.954 1421.19 274.557C1419.59 276.917 1418.32 279.511 1416.5 281.707C1412.01 287.113 1404.63 289.561 1400.27 295.058C1399.23 296.367 1398.35 297.885 1396.96 298.838C1396.14 299.403 1395.17 299.739 1394.17 299.81C1393.17 299.881 1392.17 299.685 1391.27 299.243C1390.37 298.8 1389.61 298.126 1389.06 297.291C1388.51 296.455 1388.19 295.489 1388.14 294.492C1386.45 292.015 1385.07 289.279 1383.75 286.583C1381.8 282.467 1380.15 278.216 1378.82 273.863C1378.33 272.325 1377.86 270.778 1377.23 269.282C1375.69 265.591 1373.24 262.25 1372.37 258.35C1372.02 256.785 1371.93 255.159 1371.43 253.641C1370.98 252.278 1370.2 251.043 1369.17 250.041C1365.75 246.733 1363.91 241.913 1361.19 238.019C1360.09 236.445 1358.94 234.874 1358.21 233.094C1357.48 231.314 1357.2 229.275 1357.88 227.476C1358.56 225.676 1360.34 224.223 1362.27 224.324C1363.13 224.413 1363.96 224.669 1364.73 225.077C1367.38 226.331 1369.82 228.002 1371.94 230.025C1372.87 230.914 1373.74 231.853 1374.57 232.839C1378.58 237.616 1381.73 243.415 1382 249.639C1382.09 251.772 1381.92 254.138 1383.28 255.791C1387.04 260.355 1388.24 266.632 1391.44 271.599C1392.93 273.89 1394.63 276.262 1397.16 277.306C1397.53 277.485 1397.95 277.566 1398.36 277.542C1399.37 277.427 1399.96 276.367 1400.38 275.444C1402.05 271.845 1403.99 268.372 1406.16 265.054C1407.03 263.746 1407.98 262.404 1409.35 261.635C1410.29 261.115 1411.38 260.882 1412.27 260.274C1413.5 259.426 1414.14 257.983 1414.78 256.632C1416.86 252.267 1419.49 248.185 1422.61 244.485C1424.04 242.793 1425.92 241.046 1428.12 241.298C1430.22 241.543 1431.5 243.739 1433.48 244.56Z" fill="#FBBEBE"/>
<path opacity="0.03" d="M1433.48 244.56C1434.6 244.207 1435.68 245.195 1436.31 246.196C1438.91 250.28 1438.7 255.732 1436.61 260.104C1436.12 261.212 1435.43 262.227 1434.59 263.104C1433.46 264.213 1432 264.924 1430.65 265.722C1426.88 267.937 1423.65 270.954 1421.19 274.557C1419.59 276.917 1418.32 279.511 1416.5 281.707C1412.01 287.113 1404.63 289.561 1400.27 295.058C1399.23 296.367 1398.35 297.885 1396.96 298.838C1396.14 299.403 1395.17 299.739 1394.17 299.81C1393.17 299.881 1392.17 299.685 1391.27 299.243C1390.37 298.8 1389.61 298.126 1389.06 297.291C1388.51 296.455 1388.19 295.489 1388.14 294.492C1386.45 292.015 1385.07 289.279 1383.75 286.583C1381.8 282.467 1380.15 278.216 1378.82 273.863C1378.33 272.325 1377.86 270.778 1377.23 269.282C1375.69 265.591 1373.24 262.25 1372.37 258.35C1372.02 256.785 1371.93 255.159 1371.43 253.641C1370.98 252.278 1370.2 251.043 1369.17 250.041C1365.75 246.733 1363.91 241.913 1361.19 238.019C1360.09 236.445 1358.94 234.874 1358.21 233.094C1357.48 231.314 1357.2 229.275 1357.88 227.476C1358.56 225.676 1360.34 224.223 1362.27 224.324C1363.13 224.413 1363.96 224.669 1364.73 225.077C1367.38 226.331 1369.82 228.002 1371.94 230.025C1372.87 230.914 1373.74 231.853 1374.57 232.839C1378.58 237.616 1381.73 243.415 1382 249.639C1382.09 251.772 1381.92 254.138 1383.28 255.791C1387.04 260.355 1388.24 266.632 1391.44 271.599C1392.93 273.89 1394.63 276.262 1397.16 277.306C1397.53 277.485 1397.95 277.566 1398.36 277.542C1399.37 277.427 1399.96 276.367 1400.38 275.444C1402.05 271.845 1403.99 268.372 1406.16 265.054C1407.03 263.746 1407.98 262.404 1409.35 261.635C1410.29 261.115 1411.38 260.882 1412.27 260.274C1413.5 259.426 1414.14 257.983 1414.78 256.632C1416.86 252.267 1419.49 248.185 1422.61 244.485C1424.04 242.793 1425.92 241.046 1428.12 241.298C1430.22 241.543 1431.5 243.739 1433.48 244.56Z" fill="black"/>
<path d="M1433.71 228.925C1428.92 228.925 1425.04 225.44 1425.04 221.14C1425.04 216.841 1428.92 213.356 1433.71 213.356C1438.49 213.356 1442.37 216.841 1442.37 221.14C1442.37 225.44 1438.49 228.925 1433.71 228.925Z" fill="#FBBEBE"/>
<path d="M1425.58 222.646C1423.86 222.646 1422.46 221.255 1422.46 219.54C1422.46 217.825 1423.86 216.435 1425.58 216.435C1427.3 216.435 1428.7 217.825 1428.7 219.54C1428.7 221.255 1427.3 222.646 1425.58 222.646Z" fill="#FBBEBE"/>
<path d="M1432.57 221.14C1425.98 221.14 1420.63 219.718 1420.63 217.963C1420.63 216.208 1425.98 214.786 1432.57 214.786C1439.16 214.786 1444.5 216.208 1444.5 217.963C1444.5 219.718 1439.16 221.14 1432.57 221.14Z" fill="#FBBEBE"/>
<path d="M1443.21 217.286C1442.92 218.202 1442.69 219.137 1442.53 220.083C1443.53 219.071 1444.4 217.935 1445.11 216.703C1445.3 216.491 1445.46 216.247 1445.57 215.983C1446.63 213.516 1447.36 211.019 1447.36 208.316C1447.36 205.182 1446.48 202.111 1444.82 199.448C1443.16 196.786 1440.78 194.639 1437.96 193.25C1435.14 191.861 1431.98 191.285 1428.85 191.587C1425.72 191.889 1422.73 193.057 1420.23 194.96C1417.73 196.862 1415.81 199.423 1414.7 202.353C1413.58 205.284 1413.31 208.466 1413.91 211.542C1414.52 214.617 1415.97 217.464 1418.12 219.759C1420.26 222.054 1423 223.707 1426.04 224.53C1425.53 222.875 1424.82 221.258 1424.73 219.54C1424.67 218.967 1424.75 218.389 1424.97 217.855C1425.26 217.287 1425.68 216.799 1426.21 216.435C1428.09 215.005 1430.51 214.38 1432.87 214.419C1435.24 214.517 1437.57 215.073 1439.73 216.055C1440.41 216.347 1441.22 216.739 1442.03 217.008C1442.41 217.14 1442.81 217.233 1443.21 217.286V217.286Z" fill="#FBBEBE"/>
<path d="M1400.4 254.06C1401.48 255.784 1403.79 256.311 1405.83 256.157C1409.61 255.879 1413.06 253.867 1415.98 251.445C1418.91 249.024 1421.46 246.209 1424.45 243.88C1430.02 239.537 1436.29 237.793 1443.36 237.692C1441.98 236.55 1442.49 233.84 1442.38 232.06C1442.14 228.461 1441.91 224.766 1442.38 221.219C1442.43 220.836 1442.48 220.46 1442.55 220.083C1442.44 220.201 1442.32 220.316 1442.2 220.434C1440.09 222.445 1437.5 223.88 1434.67 224.598C1431.85 225.316 1428.88 225.292 1426.06 224.531C1426.25 225.1 1426.39 225.682 1426.49 226.271C1426.9 228.801 1426.21 231.366 1425.54 233.843C1425.14 235.326 1424.66 236.916 1423.44 237.842C1422.64 238.444 1421.64 238.68 1420.69 238.997C1418.81 239.635 1417.08 240.636 1415.59 241.942C1414.55 242.849 1413.61 243.906 1412.5 244.694C1411.44 245.362 1410.32 245.936 1409.16 246.409C1406.32 247.717 1403.63 249.341 1401.15 251.249C1400.68 251.54 1400.31 251.97 1400.1 252.479C1400.04 252.749 1400.04 253.028 1400.09 253.3C1400.14 253.572 1400.25 253.831 1400.4 254.06V254.06Z" fill="#FBBEBE"/>
<path d="M1380.99 285.765C1381.22 287.257 1382.59 288.422 1383.56 289.58C1386.2 292.748 1388.87 295.925 1391.82 298.825C1394.97 301.923 1398.43 304.685 1401.9 307.447L1406.38 311.024C1406.94 311.528 1407.59 311.917 1408.29 312.169C1409.12 312.374 1410 312.271 1410.75 311.878C1411.05 311.734 1411.34 311.56 1411.6 311.357C1412.53 310.637 1413.22 309.656 1413.88 308.69C1416.92 304.277 1419.96 299.863 1423 295.448C1424.09 293.87 1425.15 292.25 1426.21 290.631C1426.35 290.421 1426.49 290.209 1426.63 289.999C1427.6 288.527 1428.56 287.054 1429.55 285.631L1434.96 283.108L1435.67 282.78L1436.51 282.391C1437.62 281.871 1438.75 281.341 1439.68 280.536C1440.56 279.705 1441.3 278.73 1441.86 277.653C1442.95 275.66 1443.89 273.597 1444.7 271.478C1447 265.696 1449.02 259.668 1449.11 253.444C1449.18 247.97 1447.56 242.276 1443.9 238.258C1443.4 237.705 1442.87 237.187 1442.3 236.707C1441.59 236.121 1440.87 235.777 1439.96 235.905C1439.06 236.033 1438.2 236.164 1437.33 236.311C1434.94 236.721 1432.57 237.223 1430.21 237.816C1428.09 238.356 1425.89 238.971 1423.74 238.542C1423.4 238.474 1423.06 238.376 1422.72 238.287C1422.44 238.215 1422.16 238.147 1421.87 238.101C1421.72 238.073 1421.56 238.056 1421.39 238.048C1420.25 237.989 1419.16 238.444 1418.11 238.893C1416.1 239.75 1414.03 240.653 1412.52 242.23C1411.62 243.179 1410.96 244.344 1410 245.238C1408.72 246.432 1407.01 247.044 1405.47 247.898C1405.17 248.062 1404.89 248.245 1404.61 248.444C1404.01 248.897 1403.45 249.419 1402.97 249.999V249.999C1400.98 252.338 1399.79 255.496 1397.6 257.823C1395.84 259.681 1394.31 261.743 1393.04 263.965C1392.83 264.335 1392.63 264.708 1392.44 265.087C1392.11 265.719 1391.8 266.36 1391.52 267.008C1391.45 267.175 1391.37 267.335 1391.31 267.509C1390.9 268.489 1390.53 269.491 1390.23 270.509C1389.48 272.98 1388.99 275.647 1387.33 277.63C1386.17 279.008 1384.57 279.921 1383.22 281.108C1382.35 281.842 1381.66 282.769 1381.22 283.815C1380.98 284.434 1380.9 285.106 1380.99 285.765Z" fill="#FBBEBE"/>
<path opacity="0.06" d="M1390.14 266.111C1390.52 266.585 1390.9 267.052 1391.3 267.512C1391.36 267.597 1391.44 267.679 1391.51 267.761C1394.97 271.79 1398.93 275.365 1403.3 278.399C1406 280.277 1408.85 281.943 1411.69 283.605L1416.95 286.671C1419.15 287.957 1421.37 289.253 1423.81 289.993C1424.6 290.225 1425.41 290.411 1426.21 290.631C1426.35 290.421 1426.49 290.209 1426.63 289.999C1427.6 288.527 1428.56 287.054 1429.55 285.631L1434.96 283.108C1431.97 281.227 1429.32 278.863 1427.12 276.112C1423.83 272.077 1421.3 267.476 1418.81 262.905C1418.37 262.167 1418.03 261.375 1417.79 260.549C1417.46 259.177 1417.74 257.738 1418.14 256.39C1419.62 251.556 1422.73 247.379 1426.95 244.567C1429.91 242.603 1433.27 241.409 1436.62 240.257C1438.95 239.452 1441.51 238.673 1443.89 239.004C1443.39 238.451 1442.85 237.934 1442.28 237.456C1441.58 236.867 1440.85 236.523 1439.95 236.651C1439.05 236.779 1438.19 236.91 1437.32 237.06C1435.56 237.597 1433.83 238.238 1432.11 238.899C1430.98 239.312 1429.89 239.807 1428.83 240.381C1427.78 241.021 1426.77 241.726 1425.8 242.492C1422.95 244.655 1419.95 246.613 1416.82 248.353C1413.21 250.339 1409.41 251.952 1405.62 253.588C1405.22 253.794 1404.77 253.906 1404.32 253.916C1404.09 253.915 1403.87 253.84 1403.7 253.701C1403.52 253.562 1403.39 253.369 1403.33 253.15C1403.32 252.912 1403.37 252.674 1403.49 252.466C1404.15 251.128 1405.64 250.454 1406.99 249.802C1412.6 247.099 1417.53 243.209 1422.41 239.347C1422.52 239.254 1422.63 239.144 1422.72 239.02L1421.87 238.834C1416.42 242.737 1410.65 246.197 1404.64 249.181C1404.32 249.342 1404 249.499 1403.68 249.652C1403.45 249.766 1403.22 249.878 1402.99 249.979C1401.37 250.771 1399.75 251.615 1398.53 252.924C1397.74 253.827 1397.08 254.829 1396.56 255.905C1395.21 258.432 1394.07 261.058 1393.13 263.759C1393.11 263.816 1393.09 263.873 1393.06 263.929C1392.94 264.341 1392.74 264.724 1392.46 265.051C1392.36 265.161 1392.24 265.253 1392.11 265.323C1391.5 265.686 1390.65 265.647 1390.14 266.111Z" fill="black"/>
<path d="M1421.86 238.101C1416.4 242.004 1410.64 245.463 1404.62 248.444L1403.67 248.919C1401.83 249.815 1399.91 250.706 1398.51 252.191C1397.73 253.096 1397.06 254.099 1396.54 255.175C1395.2 257.701 1394.05 260.327 1393.11 263.029C1392.9 263.628 1392.66 264.286 1392.1 264.593C1391.54 264.901 1390.65 264.878 1390.16 265.342C1390.6 265.899 1391.06 266.449 1391.53 266.979C1394.98 271.01 1398.94 274.586 1403.31 277.62C1406.01 279.498 1408.86 281.164 1411.71 282.826L1416.96 285.892C1419.16 287.175 1421.39 288.471 1423.83 289.211C1424.75 289.489 1425.72 289.698 1426.65 289.966C1427.61 288.494 1428.58 287.021 1429.56 285.598L1435.68 282.744C1432.4 280.892 1429.53 278.258 1427.14 275.329C1423.85 271.298 1421.33 266.697 1418.83 262.126C1418.39 261.388 1418.05 260.596 1417.81 259.77C1417.48 258.399 1417.76 256.956 1418.16 255.607C1419.64 250.789 1422.75 246.625 1426.95 243.817C1429.91 241.854 1433.27 240.663 1436.62 239.508C1438.95 238.706 1441.51 237.924 1443.89 238.258C1443.39 237.705 1442.85 237.187 1442.28 236.707C1441.58 236.121 1440.85 235.777 1439.95 235.905C1439.05 236.033 1438.19 236.164 1437.32 236.311C1435.56 236.851 1433.83 237.492 1432.11 238.153C1430.98 238.564 1429.89 239.06 1428.83 239.635C1427.78 240.275 1426.77 240.98 1425.8 241.746C1422.95 243.904 1419.94 245.857 1416.81 247.59C1413.19 249.58 1409.4 251.206 1405.61 252.826C1405.2 253.032 1404.76 253.144 1404.31 253.153C1404.08 253.154 1403.86 253.079 1403.68 252.94C1403.5 252.801 1403.38 252.607 1403.32 252.387C1403.31 252.15 1403.36 251.914 1403.48 251.707C1404.14 250.369 1405.63 249.691 1406.98 249.043C1412.59 246.34 1417.52 242.446 1422.39 238.572C1422.51 238.479 1422.62 238.369 1422.7 238.245L1421.86 238.101Z" fill="#6C63FF"/>
<path d="M1375.81 255.866C1364.42 255.866 1355.18 246.67 1355.18 235.326C1355.18 223.982 1364.42 214.786 1375.81 214.786C1387.21 214.786 1396.44 223.982 1396.44 235.326C1396.44 246.67 1387.21 255.866 1375.81 255.866Z" fill="#6C63FF"/>
<path d="M1355.3 317.074C1351.44 315.867 1347.52 314.636 1344.13 312.427C1341.74 310.876 1339.69 308.88 1337.53 307.035C1335.9 305.647 1334.2 304.338 1332.71 302.807C1331.38 301.374 1330.13 299.864 1328.97 298.285C1326.33 294.846 1323.6 291.474 1320.79 288.167C1319.28 286.403 1317.69 284.606 1315.58 283.625C1311.84 281.874 1307.45 283.055 1303.5 284.256C1297.58 286.056 1291.69 287.964 1286.16 290.703C1283.01 292.264 1279.96 294.004 1276.78 295.5C1270.97 298.232 1264.8 300.107 1258.66 301.972C1258.2 302.166 1257.69 302.207 1257.21 302.09C1256.87 301.933 1256.57 301.687 1256.35 301.377C1255.55 300.391 1254.91 299.287 1254.45 298.105C1254.36 297.97 1254.33 297.808 1254.36 297.65C1254.39 297.493 1254.47 297.352 1254.6 297.257C1257.23 294.708 1260.65 293.14 1263.83 291.324C1266.37 289.881 1268.8 288.262 1271.22 286.642C1273.55 285.087 1275.9 283.517 1277.86 281.517C1278.85 280.506 1279.73 279.39 1280.8 278.468C1281.75 277.699 1282.74 277.001 1283.79 276.38C1288.48 273.401 1292.95 270.102 1297.18 266.507C1300.39 263.772 1303.02 260.247 1306.46 257.793C1308.56 256.288 1311.01 254.917 1313.59 255.192C1316.73 255.519 1319.04 258.137 1321.23 260.395C1328.57 267.99 1337.84 273.425 1346.04 280.104C1352.73 285.549 1358.98 292.018 1367.13 294.891C1366.77 296.095 1366.64 297.3 1366.27 298.491C1365.81 300.146 1365.24 301.769 1364.56 303.347C1363.88 304.744 1363.12 306.099 1362.28 307.404L1359.02 312.715C1358.36 313.795 1357.67 314.891 1356.73 315.749C1356.24 316.22 1355.3 316.39 1355.3 317.074Z" fill="#464353"/>
<path opacity="0.06" d="M1355.3 317.074C1351.44 315.867 1347.52 314.636 1344.13 312.427C1341.74 310.876 1339.69 308.88 1337.53 307.035C1335.9 305.647 1334.2 304.338 1332.71 302.807C1331.38 301.374 1330.13 299.864 1328.97 298.285C1326.33 294.846 1323.6 291.474 1320.79 288.167C1319.28 286.403 1317.69 284.606 1315.58 283.625C1311.84 281.874 1307.45 283.055 1303.5 284.256C1297.58 286.056 1291.69 287.964 1286.16 290.703C1283.01 292.264 1279.96 294.004 1276.78 295.5C1270.97 298.232 1264.8 300.107 1258.66 301.972C1258.2 302.166 1257.69 302.207 1257.21 302.09C1256.87 301.933 1256.57 301.687 1256.35 301.377C1255.55 300.391 1254.91 299.287 1254.45 298.105C1254.36 297.97 1254.33 297.808 1254.36 297.65C1254.39 297.493 1254.47 297.352 1254.6 297.257C1257.23 294.708 1260.65 293.14 1263.83 291.324C1266.37 289.881 1268.8 288.262 1271.22 286.642C1273.55 285.087 1275.9 283.517 1277.86 281.517C1278.85 280.506 1279.73 279.39 1280.8 278.468C1281.75 277.699 1282.74 277.001 1283.79 276.38C1288.48 273.401 1292.95 270.102 1297.18 266.507C1300.39 263.772 1303.02 260.247 1306.46 257.793C1308.56 256.288 1311.01 254.917 1313.59 255.192C1316.73 255.519 1319.04 258.137 1321.23 260.395C1328.57 267.99 1337.84 273.425 1346.04 280.104C1352.73 285.549 1358.98 292.018 1367.13 294.891C1366.77 296.095 1366.64 297.3 1366.27 298.491C1365.81 300.146 1365.24 301.769 1364.56 303.347C1363.88 304.744 1363.12 306.099 1362.28 307.404L1359.02 312.715C1358.36 313.795 1357.67 314.891 1356.73 315.749C1356.24 316.22 1355.3 316.39 1355.3 317.074Z" fill="black"/>
<path d="M1265.33 310.84C1264.96 311.356 1264.71 311.946 1264.6 312.568C1264.49 313.189 1264.51 313.828 1264.67 314.44C1263.5 315.28 1262.08 315.697 1260.64 315.621C1259.21 315.542 1257.8 315.221 1256.47 314.672C1255.33 314.254 1254.24 313.686 1253.24 312.984C1251.52 311.721 1250.28 309.914 1249.28 308.039C1248.72 307.008 1248.25 305.67 1248.97 304.741C1249.24 304.424 1249.58 304.166 1249.95 303.982C1252.48 302.545 1255.11 301.296 1257.83 300.248C1258.57 299.906 1259.38 299.724 1260.2 299.715C1261.22 299.77 1262.13 300.323 1262.94 300.938C1264.74 302.334 1266.19 304.126 1267.18 306.174C1267.49 306.829 1268.42 308.386 1267.96 309.06C1267.75 309.371 1266.97 309.479 1266.65 309.672C1266.13 309.965 1265.68 310.363 1265.33 310.84V310.84Z" fill="#FBBEBE"/>
<path d="M1250.28 303.098C1244.72 304.129 1239.6 306.802 1234.14 308.245C1231.93 308.828 1229.65 309.227 1227.54 310.084C1225.42 310.942 1223.43 312.408 1222.52 314.495C1222.14 315.498 1221.88 316.544 1221.76 317.611C1221.52 319.119 1221.33 320.804 1222.23 322.041C1223.18 323.35 1224.98 323.641 1226.58 323.831C1232.36 324.518 1238.14 325.202 1243.94 325.687C1245.11 325.759 1246.27 325.898 1247.43 326.102C1248.38 326.295 1249.31 326.58 1250.26 326.803C1251.48 327.09 1252.73 327.267 1253.97 327.457C1257.15 327.909 1260.37 328.367 1263.56 328.017C1265.01 327.856 1266.64 327.388 1267.28 326.079C1267.55 325.401 1267.66 324.672 1267.61 323.946C1267.61 322.005 1267.65 320.062 1267.61 318.121C1267.58 316.128 1267.48 314.06 1266.58 312.283C1266.35 311.74 1265.93 311.302 1265.39 311.056C1265.06 310.962 1264.71 310.931 1264.37 310.965C1262.66 311.024 1260.89 311.096 1259.37 311.855C1258.15 312.454 1257.28 310.664 1256.04 311.2C1253.7 312.231 1255.29 309.106 1252.92 310.078C1252.37 308.383 1250.02 309.391 1250.43 307.653C1250.84 305.916 1249.38 306.671 1249.54 304.885C1249.55 304.495 1249.63 304.11 1249.77 303.746C1249.95 303.396 1249.89 303.042 1250.28 303.098Z" fill="#464353"/>
<path opacity="0.06" d="M1416.86 198.401C1418.13 199.141 1419.71 199.003 1421.2 198.971C1422.5 198.944 1423.8 199.011 1425.09 199.17C1425.55 199.203 1426 199.323 1426.42 199.524C1426.97 199.874 1427.4 200.376 1427.67 200.967C1428.19 201.973 1428.55 203.059 1428.71 204.18C1428.9 205.44 1428.88 206.818 1429.67 207.816C1430.74 209.174 1432.42 208.964 1433.94 209.233C1435.26 209.486 1436.53 209.969 1437.69 210.659C1438.83 211.345 1439.81 212.267 1440.56 213.363C1441.31 214.459 1441.81 215.703 1442.03 217.011C1442.08 217.309 1442.11 217.603 1442.12 217.901C1442.15 218.745 1442.07 219.606 1442.18 220.434C1442.21 220.64 1442.25 220.845 1442.3 221.046C1442.32 221.105 1442.34 221.163 1442.36 221.219C1442.41 220.836 1442.46 220.46 1442.53 220.083C1443.53 219.071 1444.4 217.935 1445.11 216.703C1445.31 216.491 1445.46 216.247 1445.57 215.983C1446.64 213.516 1447.36 211.019 1447.36 208.316C1447.36 204.772 1446.24 201.318 1444.15 198.449C1442.06 195.579 1439.11 193.442 1435.72 192.342C1432.34 191.242 1428.69 191.235 1425.3 192.324C1421.91 193.412 1418.96 195.539 1416.86 198.401H1416.86Z" fill="black"/>
<path d="M1415.77 191.961C1416.62 190.014 1418.4 188.634 1420.24 187.55C1423.85 185.404 1428.01 184.056 1432.23 184C1434.36 184.001 1436.49 184.22 1438.57 184.654C1440.6 185.016 1442.59 185.578 1444.51 186.333C1447.67 187.644 1450.47 189.701 1452.66 192.328C1453.12 192.363 1453.58 192.436 1454.03 192.547C1455.81 192.992 1457.42 193.971 1458.89 195.08C1460.12 195.967 1461.22 197.028 1462.13 198.231C1463.21 199.767 1463.95 201.509 1464.32 203.346C1465.57 209.092 1464.03 215.021 1462.9 220.79C1461.77 226.559 1461.11 232.862 1463.89 238.045C1464.93 240.008 1466.42 241.677 1467.54 243.588C1468.66 245.499 1469.4 247.8 1468.77 249.92C1468.01 252.499 1465.47 254.135 1464.14 256.455C1463.33 257.973 1463.04 259.714 1463.31 261.412C1463.59 263.11 1464.42 264.67 1465.67 265.853C1463.59 266.573 1461.26 265.797 1459.38 264.645C1457.89 263.781 1456.62 262.584 1455.68 261.147C1453.32 257.338 1454.37 252.42 1453.54 248.019C1452.45 242.26 1448.03 237.122 1448.64 231.291C1449.05 227.364 1451.65 224.108 1453.7 220.741C1455.07 218.496 1456.21 216.126 1457.13 213.663C1457.79 211.906 1458.32 210.018 1457.99 208.172C1457.89 207.609 1457.71 207.06 1457.48 206.536C1457.48 206.598 1457.48 206.661 1457.48 206.723C1457.44 208.418 1457.06 210.088 1456.35 211.631C1453.91 216.605 1447.4 218.438 1444.64 223.245C1443.83 222.371 1443 221.455 1442.67 220.316C1442.38 219.301 1442.53 218.222 1442.48 217.168C1442.37 214.223 1440.57 211.448 1438.05 209.93C1436.9 209.238 1435.63 208.756 1434.3 208.506C1432.79 208.235 1431.11 208.441 1430.03 207.083C1429.24 206.101 1429.26 204.707 1429.07 203.45C1428.91 202.327 1428.55 201.24 1428.03 200.234C1427.76 199.643 1427.33 199.143 1426.78 198.794C1426.36 198.591 1425.91 198.471 1425.44 198.441C1424.15 198.281 1422.86 198.214 1421.56 198.241C1420.06 198.277 1418.45 198.411 1417.16 197.642C1415.35 196.543 1414.93 193.925 1415.77 191.961Z" fill="#464353"/>
<path d="M1228.01 341.505L1228.3 341.59Z" fill="#464353"/>
<path d="M1229.05 303.422C1229.04 303.312 1229.02 303.202 1228.99 303.095Z" fill="#464353"/>
<path opacity="0.06" d="M1380.99 285.765C1381.22 287.257 1382.59 288.422 1383.56 289.58C1386.2 292.748 1388.87 295.925 1391.82 298.825C1394.97 301.923 1398.43 304.685 1401.9 307.447L1406.38 311.024C1406.94 311.528 1407.59 311.917 1408.29 312.169C1409.12 312.374 1410 312.271 1410.75 311.878C1410.69 311.747 1410.62 311.626 1410.54 311.505L1405.16 302.522C1404.1 300.762 1403.41 299.158 1402.2 297.506C1400.38 295.032 1398.55 292.545 1396.31 290.447C1393.48 287.794 1389.85 285.866 1386.49 283.949C1386 282.496 1383.96 282.093 1382.59 282.78C1382.08 283.044 1381.62 283.395 1381.23 283.818C1380.98 284.436 1380.9 285.106 1380.99 285.765V285.765Z" fill="black"/>
<path d="M1404.78 302.892L1410.17 311.878C1410.39 312.241 1410.61 312.653 1410.52 313.065C1410.4 313.411 1410.17 313.709 1409.86 313.913C1407.8 315.585 1405.51 317.349 1404.86 319.918C1404.4 321.75 1404.86 323.713 1404.45 325.552C1403.69 328.871 1400.34 330.886 1397.17 332.162C1390.07 335.022 1382.19 336.122 1374.65 334.78C1367.11 333.439 1359.95 329.617 1355.06 323.74C1353.57 321.933 1352.28 319.957 1350.86 318.092C1346.92 312.938 1341.91 308.707 1336.95 304.518C1330.55 299.125 1326.79 291.082 1321.17 284.885C1320.15 283.756 1319.02 282.594 1317.56 282.221C1316.73 282.015 1315.58 282.319 1315.55 283.163C1315.47 284.799 1314.15 286.138 1313.25 287.506C1309.84 292.689 1306.28 298.033 1301.02 301.338C1298.14 303.15 1294.88 304.26 1291.62 305.264C1283.37 307.823 1274.96 309.846 1266.56 311.848C1266.14 311.004 1265.63 310.205 1265.05 309.463C1264.17 308.399 1263.03 307.588 1262.15 306.518C1260.55 304.59 1259.99 302.041 1259.48 299.593C1264.5 296.534 1269.65 293.376 1274.6 290.195C1277.09 288.599 1279.6 286.966 1281.61 284.806C1282.93 283.386 1284.03 281.759 1285.35 280.329C1286.7 278.942 1288.15 277.659 1289.69 276.491L1301.53 267.057C1304.92 264.351 1308.39 261.494 1311.71 258.693C1313.59 257.116 1315.66 255.457 1318.1 255.382C1320.2 255.316 1322.12 256.432 1323.92 257.505C1334.5 263.812 1345.24 269.835 1356.13 275.575C1358.34 276.733 1360.55 277.885 1362.66 279.217C1366.75 281.809 1370.38 285.058 1373.41 288.831C1373.97 289.521 1374.67 290.307 1375.55 290.202C1375.79 290.167 1376.03 290.085 1376.24 289.963C1377.59 289.24 1378.43 287.843 1379.19 286.517C1379.96 285.192 1380.82 283.798 1382.2 283.111C1383.58 282.424 1385.61 282.826 1386.1 284.282C1389.48 286.256 1393.1 288.167 1395.93 290.82C1398.17 292.918 1400 295.402 1401.82 297.879C1403.03 299.531 1403.73 301.135 1404.78 302.892Z" fill="#464353"/>
<path opacity="0.06" d="M1413.6 248.088C1413.6 248.088 1408.19 250.48 1404.31 253.179Z" fill="black"/>
<path opacity="0.06" d="M1437.23 247.646C1441.54 248.493 1443.78 253.536 1443.53 257.898C1443.29 261.794 1441.68 265.482 1438.99 268.32C1437.19 270.202 1434.95 271.655 1433.32 273.687C1430.93 276.684 1430.09 280.647 1427.94 283.831C1426.39 286.141 1424.2 287.954 1422.03 289.692C1417.02 293.671 1411.85 297.437 1406.51 300.991C1404.34 302.434 1401.97 303.893 1399.36 303.838C1396.9 303.785 1394.64 302.349 1393.03 300.49C1391.43 298.631 1390.41 296.374 1389.36 294.148C1385.61 286 1381.83 277.764 1380.04 268.981C1379.47 266.223 1379.1 263.379 1377.84 260.856C1376.85 258.893 1375.4 257.211 1374.09 255.437C1371.02 251.229 1368.86 246.427 1367.76 241.34C1367.04 238.022 1366.8 234.468 1367.98 231.294C1369.15 228.12 1372.01 225.368 1375.41 225.12C1378.1 224.923 1380.75 226.298 1382.55 228.297C1384.36 230.296 1385.43 232.852 1386.15 235.44C1387.19 239.164 1387.59 243.037 1387.34 246.893C1387.13 250.005 1386.49 253.147 1387.03 256.223C1387.41 258.392 1388.36 260.418 1389.3 262.414C1391.73 267.564 1394.19 272.78 1397.87 277.139C1399.06 278.559 1400.71 279.996 1402.54 279.662C1405.07 279.204 1405.74 276.013 1406.99 273.772C1408.52 271.023 1411.43 269.371 1413.7 267.188C1416.94 264.079 1418.89 259.91 1421.19 256.062C1423.49 252.214 1426.48 248.415 1430.72 246.939C1434.97 245.463 1440.63 247.358 1441.72 251.704" fill="black"/>
<path opacity="0.06" d="M1433.98 250.633C1438.29 251.481 1443.78 252.034 1443.51 256.403C1443.27 260.299 1441.66 263.988 1438.97 266.825C1437.17 268.71 1434.93 270.162 1433.31 272.195C1430.91 275.192 1430.07 279.151 1427.93 282.339C1426.37 284.652 1424.18 286.465 1422.01 288.199C1417 292.181 1411.83 295.947 1406.5 299.499C1404.33 300.945 1401.95 302.404 1399.34 302.349C1396.89 302.296 1394.62 300.857 1393.02 299.001C1391.41 297.146 1390.39 294.885 1389.35 292.656C1385.59 284.508 1381.81 276.272 1380.02 267.489C1379.46 264.734 1379.08 261.887 1377.82 259.367C1376.84 257.404 1375.38 255.722 1374.08 253.945C1371 249.738 1368.84 244.937 1367.74 239.851C1367.02 236.53 1366.78 232.98 1367.96 229.802C1369.14 226.625 1371.99 223.879 1375.4 223.627C1378.09 223.431 1380.73 224.809 1382.54 226.805C1384.34 228.801 1385.41 231.36 1386.14 233.951C1387.18 237.675 1387.58 241.548 1387.32 245.404C1387.11 248.52 1386.47 251.661 1387.01 254.734C1387.39 256.906 1388.34 258.932 1389.28 260.928C1391.71 266.079 1394.18 271.291 1397.85 275.653C1399.05 277.074 1400.69 278.507 1402.52 278.176C1405.05 277.715 1405.72 274.524 1406.97 272.286C1408.5 269.537 1411.41 267.885 1413.69 265.702C1416.93 262.597 1418.87 258.425 1421.17 254.577C1423.48 250.728 1426.46 246.933 1430.71 245.453C1434.95 243.974 1429.63 253.448 1430.73 257.793" fill="black"/>
<path d="M1437.23 246.897C1441.54 247.744 1443.78 252.787 1443.53 257.149C1443.29 261.046 1441.68 264.735 1438.99 267.574C1437.19 269.456 1434.95 270.909 1433.32 272.941C1430.93 275.938 1430.09 279.901 1427.94 283.085C1426.39 285.398 1424.2 287.211 1422.03 288.949C1417.02 292.928 1411.85 296.693 1406.51 300.245C1404.34 301.691 1401.97 303.15 1399.36 303.095C1396.9 303.042 1394.64 301.606 1393.03 299.747C1391.43 297.889 1390.41 295.631 1389.36 293.406C1385.61 285.258 1381.83 277.021 1380.04 268.235C1379.47 265.48 1379.1 262.633 1377.84 260.113C1376.85 258.15 1375.4 256.468 1374.09 254.691C1371.02 250.484 1368.86 245.684 1367.76 240.597C1367.04 237.276 1366.8 233.726 1367.98 230.548C1369.15 227.371 1372.01 224.625 1375.41 224.377C1378.1 224.177 1380.75 225.555 1382.55 227.554C1384.36 229.553 1385.43 232.109 1386.15 234.698C1387.19 238.421 1387.59 242.294 1387.34 246.151C1387.13 249.262 1386.49 252.404 1387.03 255.477C1387.41 257.649 1388.36 259.675 1389.3 261.671C1391.73 266.822 1394.19 272.038 1397.87 276.396C1399.06 277.816 1400.71 279.25 1402.54 278.919C1405.07 278.458 1405.74 275.271 1406.99 273.029C1408.52 270.277 1411.43 268.625 1413.7 266.445C1416.94 263.337 1418.89 259.168 1421.19 255.319C1423.49 251.471 1426.48 247.675 1430.72 246.2C1434.97 244.724 1440.63 246.618 1441.72 250.964" fill="#FBBEBE"/>
<g opacity="0.06">
<path opacity="0.06" d="M1453.7 220.758C1455.07 218.512 1456.21 216.142 1457.13 213.68L1457.24 213.352C1457.93 212.611 1458.52 211.775 1458.97 210.869C1459.68 209.325 1460.06 207.655 1460.1 205.96C1460.1 205.898 1460.1 205.836 1460.1 205.774C1460.33 206.297 1460.51 206.846 1460.61 207.41C1460.94 209.255 1460.4 211.14 1459.75 212.901C1458.83 215.363 1457.69 217.733 1456.32 219.979C1454.28 223.375 1451.67 226.648 1451.27 230.545C1450.66 236.376 1455.08 241.51 1456.17 247.273C1457 251.674 1455.95 256.592 1458.31 260.401C1459.25 261.837 1460.52 263.034 1462.01 263.896C1462.95 264.489 1463.97 264.931 1465.05 265.205C1465.24 265.436 1465.45 265.655 1465.68 265.859C1463.59 266.579 1461.27 265.804 1459.39 264.652C1457.9 263.788 1456.63 262.59 1455.68 261.154C1453.32 257.345 1454.37 252.427 1453.55 248.025C1452.45 242.266 1448.04 237.129 1448.64 231.298C1449.05 227.377 1451.65 224.108 1453.7 220.758Z" fill="black"/>
<path opacity="0.06" d="M1415.77 191.961C1416.62 190.014 1418.4 188.634 1420.24 187.55C1422.56 186.161 1425.09 185.146 1427.73 184.54C1426.04 185.129 1424.41 185.887 1422.86 186.801C1421.03 187.887 1419.25 189.265 1418.4 191.215C1417.55 193.166 1417.97 195.797 1419.8 196.883C1421.09 197.652 1422.69 197.515 1424.19 197.482C1425.49 197.452 1426.79 197.518 1428.08 197.678C1428.54 197.712 1429 197.831 1429.42 198.032C1429.97 198.385 1430.4 198.892 1430.66 199.488C1431.19 200.494 1431.55 201.581 1431.71 202.704C1431.9 203.961 1431.88 205.339 1432.67 206.337C1433.74 207.695 1435.42 207.488 1436.94 207.757C1438.27 208.01 1439.54 208.493 1440.69 209.183C1443.21 210.699 1445.01 213.467 1445.12 216.422C1445.16 217.475 1445.02 218.552 1445.3 219.566C1445.49 220.158 1445.78 220.712 1446.16 221.203C1445.58 221.822 1445.07 222.506 1444.64 223.241C1443.83 222.368 1443 221.451 1442.67 220.313C1442.38 219.298 1442.53 218.218 1442.48 217.165C1442.37 214.22 1440.57 211.445 1438.05 209.926C1436.9 209.234 1435.63 208.752 1434.3 208.503C1432.79 208.231 1431.11 208.437 1430.03 207.079C1429.24 206.098 1429.26 204.704 1429.07 203.447C1428.91 202.324 1428.55 201.237 1428.03 200.231C1427.76 199.64 1427.33 199.139 1426.78 198.791C1426.36 198.588 1425.91 198.468 1425.44 198.437C1424.15 198.278 1422.86 198.211 1421.56 198.238C1420.06 198.274 1418.45 198.408 1417.16 197.639C1415.35 196.543 1414.93 193.925 1415.77 191.961Z" fill="black"/>
</g>
<path opacity="0.06" d="M1437.29 223.228C1437.29 223.228 1433.41 226.553 1426.04 224.537C1426.04 224.531 1430.61 226.32 1437.29 223.228Z" fill="black"/>
<path d="M1457.27 306.737C1457.27 306.737 1456.74 306.158 1457.73 305.929V304.976H1457.14C1457.14 303.826 1457.53 302.711 1458.26 301.817C1458.99 300.924 1460 300.306 1461.14 300.068V298.913H1460.98V297.411H1464.78V298.913H1464.67V300.081C1465.79 300.331 1466.8 300.953 1467.51 301.846C1468.23 302.738 1468.62 303.847 1468.62 304.989H1468.1V305.902C1468.1 305.902 1469.34 306.488 1468.1 307.539C1466.85 308.589 1467.04 309.348 1467.04 309.348C1467.04 309.348 1467.57 311.312 1468.62 311.567V329.771C1468.62 330.302 1468.51 330.828 1468.31 331.319C1468.1 331.81 1467.8 332.257 1467.43 332.633C1467.05 333.008 1466.6 333.307 1466.11 333.51C1465.62 333.714 1465.09 333.818 1464.55 333.818H1461.34C1460.26 333.818 1459.23 333.392 1458.47 332.633C1457.71 331.874 1457.28 330.844 1457.28 329.771V311.567C1457.28 311.567 1459.11 310.196 1458.79 309.348C1458.34 308.442 1457.84 307.569 1457.27 306.737V306.737Z" fill="#464353"/>
</g>
</g>
<defs>
<filter id="filter0_d" x="1215" y="184" width="258" height="165.59" filterUnits="userSpaceOnUse" color-interpolation-filters="sRGB">
<feFlood flood-opacity="0" result="BackgroundImageFix"/>
<feColorMatrix in="SourceAlpha" type="matrix" values="0 0 0 0 0 0 0 0 0 0 0 0 0 0 0 0 0 0 127 0"/>
<feOffset dy="4"/>
<feGaussianBlur stdDeviation="2"/>
<feColorMatrix type="matrix" values="0 0 0 0 0 0 0 0 0 0 0 0 0 0 0 0 0 0 0.25 0"/>
<feBlend mode="normal" in2="BackgroundImageFix" result="effect1_dropShadow"/>
<feBlend mode="normal" in="SourceGraphic" in2="effect1_dropShadow" result="shape"/>
</filter>
<clipPath id="clip0">
<rect width="747.758" height="668.841" fill="white" transform="translate(804)"/>
</clipPath>
</defs>
</svg>
